<svg width="23" height="17" viewBox="0 0 23 17" fill="none" xmlns="http://www.w3.org/2000/svg">
<path fill-rule="evenodd" clip-rule="evenodd" d="M9.70973 4.34121C9.58345 4.26542 9.43932 4.22448 9.29205 4.2226C9.14479 4.22072 8.99966 4.25795 8.87149 4.3305C8.74332 4.40305 8.63669 4.50831 8.56251 4.63554C8.48832 4.76277 8.44923 4.90741 8.44922 5.05469V11.7123C8.44923 11.8596 8.48832 12.0042 8.56251 12.1314C8.63669 12.2587 8.74332 12.3639 8.87149 12.4365C8.99966 12.509 9.14479 12.5463 9.29205 12.5444C9.43932 12.5425 9.58345 12.5016 9.70973 12.4258L15.2577 9.09696C15.3809 9.02301 15.4828 8.91843 15.5536 8.7934C15.6244 8.66838 15.6615 8.52716 15.6615 8.38349C15.6615 8.23983 15.6244 8.09861 15.5536 7.97358C15.4828 7.84855 15.3809 7.74397 15.2577 7.67002L9.70973 4.34121ZM13.2116 8.38349L10.1136 10.2421V6.52491L13.2116 8.38349Z" fill="white"/>
<path fill-rule="evenodd" clip-rule="evenodd" d="M17.0814 0.217959C13.3662 -0.072653 9.63399 -0.072653 5.9188 0.217959L3.43218 0.413249C2.69744 0.470523 2.00299 0.772015 1.45946 1.2697C0.915924 1.76739 0.55456 2.43265 0.432929 3.15951C-0.14431 6.61826 -0.14431 10.1488 0.432929 13.6075C0.55456 14.3344 0.915924 14.9996 1.45946 15.4973C2.00299 15.995 2.69744 16.2965 3.43218 16.3538L5.91769 16.5491C9.63374 16.8398 13.3664 16.8398 17.0825 16.5491L19.568 16.3538C20.3027 16.2965 20.9972 15.995 21.5407 15.4973C22.0843 14.9996 22.4456 14.3344 22.5673 13.6075C23.1442 10.1489 23.1442 6.61814 22.5673 3.15951C22.4456 2.43265 22.0843 1.76739 21.5407 1.2697C20.9972 0.772015 20.3027 0.470523 19.568 0.413249L17.0814 0.217959ZM6.04862 1.87792C9.67813 1.59396 13.3243 1.59396 16.9538 1.87792L19.4393 2.0721C20.1894 2.13091 20.803 2.69348 20.9262 3.43469C21.4749 6.71109 21.4749 10.0559 20.9262 13.3323C20.8661 13.6929 20.687 14.0229 20.4175 14.2699C20.1481 14.5168 19.8037 14.6664 19.4393 14.6949L16.9538 14.8891C13.3243 15.1731 9.67813 15.1731 6.04862 14.8891L3.56311 14.6949C3.19872 14.6664 2.85434 14.5168 2.58487 14.2699C2.3154 14.0229 2.13634 13.6929 2.07625 13.3323C1.5275 10.0559 1.5275 6.71109 2.07625 3.43469C2.13634 3.07416 2.3154 2.74412 2.58487 2.49717C2.85434 2.25022 3.19872 2.10058 3.56311 2.0721L6.04862 1.87792Z" fill="white"/>
</svg>
