<svg width="24" height="15" viewBox="0 0 24 15" fill="none" xmlns="http://www.w3.org/2000/svg">
<path fill-rule="evenodd" clip-rule="evenodd" d="M23.155 12.1144C22.6109 11.0189 21.8941 10.0181 21.032 9.15038C20.7432 8.82487 20.4413 8.51128 20.127 8.21038L20.089 8.17338C19.9722 8.0602 19.8569 7.94552 19.743 7.82938C20.9218 6.19023 21.9303 4.43515 22.753 2.59138L22.786 2.51738L22.809 2.43938C22.918 2.07638 23.042 1.38638 22.602 0.76238C22.146 0.11838 21.417 0.00237943 20.928 0.00237943H18.681C18.2104 -0.0193712 17.7451 0.108443 17.3517 0.367494C16.9582 0.626544 16.6569 1.00353 16.491 1.44438C16.0075 2.59604 15.402 3.69262 14.685 4.71538V2.08238C14.685 1.74238 14.653 1.17238 14.288 0.692379C13.852 0.116379 13.221 0.00237943 12.783 0.00237943H9.217C8.75167 -0.00832725 8.30005 0.160341 7.95567 0.473454C7.61128 0.786567 7.40051 1.22014 7.367 1.68438L7.364 1.72938V1.77438C7.364 2.25938 7.556 2.61738 7.71 2.84238C7.779 2.94338 7.852 3.03538 7.899 3.09338L7.909 3.10638C7.959 3.16838 7.992 3.20938 8.025 3.25538C8.113 3.37338 8.238 3.55738 8.274 4.03138V5.50438C7.55827 4.30565 6.97134 3.03458 6.523 1.71238L6.515 1.69038L6.507 1.66938C6.385 1.35038 6.19 0.88638 5.799 0.53238C5.343 0.11738 4.803 0.00237943 4.312 0.00237943H2.032C1.535 0.00237943 0.936 0.11838 0.489 0.58938C0.05 1.05338 0 1.60938 0 1.90338V2.03738L0.028 2.16738C0.658264 5.09851 1.95931 7.84367 3.829 10.1874C4.68332 11.5347 5.84321 12.6617 7.21459 13.477C8.58596 14.2922 10.1302 14.7726 11.722 14.8794L11.763 14.8824H11.805C12.531 14.8824 13.288 14.8194 13.857 14.4404C14.624 13.9284 14.685 13.1434 14.685 12.7514V11.6134C14.882 11.7734 15.126 11.9874 15.425 12.2754C15.787 12.6374 16.075 12.9514 16.322 13.2254L16.454 13.3714C16.646 13.5854 16.835 13.7964 17.007 13.9694C17.223 14.1864 17.49 14.4254 17.824 14.6024C18.187 14.7934 18.568 14.8804 18.972 14.8804H21.253C21.734 14.8804 22.423 14.7664 22.908 14.2044C23.436 13.5924 23.396 12.8414 23.23 12.3024L23.2 12.2054L23.155 12.1144ZM17.435 12.2204C17.1251 11.8739 16.806 11.5358 16.478 11.2064L16.475 11.2034C15.118 9.89538 14.485 9.66838 14.037 9.66838C13.798 9.66838 13.535 9.69438 13.364 9.90838C13.2879 10.011 13.2375 10.1303 13.217 10.2564C13.1932 10.4031 13.1824 10.5517 13.185 10.7004V12.7514C13.185 13.0064 13.143 13.1134 13.025 13.1914C12.868 13.2964 12.533 13.3814 11.814 13.3814C10.4482 13.2884 9.12398 12.8727 7.95018 12.1683C6.77637 11.4638 5.78652 10.4909 5.062 9.32938L5.054 9.31638L5.044 9.30438C3.30218 7.13812 2.0888 4.59598 1.5 1.87938C1.504 1.74938 1.532 1.67038 1.578 1.62238C1.625 1.57238 1.74 1.50238 2.032 1.50238H4.312C4.565 1.50238 4.697 1.55838 4.792 1.64338C4.898 1.74138 4.992 1.90638 5.104 2.20038C5.664 3.84638 6.42 5.38638 7.137 6.51838C7.495 7.08338 7.847 7.55438 8.165 7.88738C8.324 8.05338 8.479 8.19138 8.628 8.28938C8.771 8.38338 8.934 8.45838 9.102 8.45838C9.19 8.45838 9.293 8.44838 9.392 8.40538C9.49905 8.35835 9.58712 8.27662 9.642 8.17338C9.745 7.98538 9.774 7.70838 9.774 7.34538V3.97238C9.721 3.15438 9.474 2.69338 9.234 2.36638C9.18532 2.30103 9.13531 2.23669 9.084 2.17338L9.071 2.15738C9.02856 2.10543 8.98787 2.05206 8.949 1.99738C8.9003 1.93592 8.87075 1.8615 8.864 1.78338C8.87185 1.70392 8.90976 1.63046 8.96999 1.57803C9.03022 1.52561 9.10821 1.49819 9.188 1.50138H12.783C12.989 1.50138 13.058 1.55138 13.093 1.59838C13.143 1.66338 13.185 1.79838 13.185 2.08238V6.61038C13.185 7.14838 13.433 7.51238 13.793 7.51238C14.207 7.51238 14.506 7.26138 15.028 6.73938L15.037 6.72938L15.045 6.72038C16.2161 5.29274 17.1728 3.70202 17.885 1.99838L17.889 1.98638C17.9422 1.83568 18.0435 1.70661 18.1772 1.619C18.3108 1.53138 18.4696 1.49006 18.629 1.50138H20.929C21.241 1.50138 21.343 1.58138 21.377 1.62838C21.412 1.67838 21.437 1.78538 21.377 1.99538C20.5557 3.83179 19.5403 5.57505 18.348 7.19538L18.34 7.20738C18.225 7.38438 18.098 7.58038 18.08 7.80438C18.06 8.04638 18.164 8.26538 18.347 8.50138C18.48 8.69738 18.755 8.96638 19.034 9.23938L19.06 9.26538C19.352 9.55138 19.669 9.86138 19.923 10.1614L19.93 10.1684L19.937 10.1764C20.6943 10.932 21.3241 11.8053 21.802 12.7624C21.878 13.0224 21.832 13.1564 21.772 13.2254C21.703 13.3054 21.548 13.3804 21.254 13.3804H18.972C18.8164 13.3846 18.6624 13.3484 18.525 13.2754C18.3567 13.1768 18.2038 13.0542 18.071 12.9114C17.928 12.7684 17.773 12.5954 17.583 12.3844L17.435 12.2204Z" fill="white"/>
</svg>
