<svg width="90" height="85" viewBox="0 0 90 85" fill="none" xmlns="http://www.w3.org/2000/svg">
<path d="M78 67.0001H88V75.0001H78V85.0001H70V75.0001H61V67.0001H70V58.0001H78V67.0001ZM45.0312 6.10352e-05C45.6971 0.00416188 46.3521 0.173737 46.9385 0.494202C47.5249 0.814665 48.025 1.27674 48.3955 1.83893L67.1729 29.1114H85.9092C88.1591 29.1114 90 30.9821 90 33.2686L89.8359 34.4747L85.9092 49.0665C82.1756 46.8832 77.9423 45.7364 73.6348 45.7403C69.3274 45.7442 65.0968 46.899 61.3672 49.0889C57.6374 51.2789 54.5394 54.4273 52.3848 58.2178C50.2303 62.0083 49.0943 66.3082 49.0908 70.6856C49.0909 73.5956 49.6225 76.381 50.5225 79.0001H18.4092C15.2183 79.0001 12.4359 77.1291 11.0859 74.4268L0.40918 35.0977L0 33.2686C0 30.9821 1.84086 29.1114 4.09082 29.1114H22.8271L41.6455 1.79694C42.0226 1.23945 42.5281 0.783965 43.1182 0.470764C43.7084 0.157553 44.3654 -0.0040322 45.0312 6.10352e-05ZM45 45.7413C40.4591 45.7413 36.8184 49.4826 36.8184 54.0557C36.8184 58.6288 40.5 62.3702 45 62.3702C49.5 62.3702 53.1816 58.6704 53.1816 54.0557C53.1816 49.4826 49.5409 45.7413 45 45.7413ZM32.7275 29.1114H57.2725L45 11.4005L32.7275 29.1114Z" fill="white"/>
</svg>
