<svg width="126" height="33" viewBox="0 0 126 33" fill="none" xmlns="http://www.w3.org/2000/svg">
<path d="M27.8363 7.98387C27.8363 5.33825 25.6394 3.19355 22.9294 3.19355C20.2195 3.19355 18.0226 5.33825 18.0226 7.98387V25.0161C18.0226 27.6618 20.2195 29.8065 22.9294 29.8065C25.6394 29.8065 27.8363 27.6618 27.8363 25.0161V7.98387ZM31.1075 25.0161C31.1075 29.4255 27.446 33 22.9294 33C18.4128 33 14.7514 29.4255 14.7514 25.0161V7.98387C14.7514 3.5745 18.4128 0 22.9294 0C27.446 0 31.1075 3.5745 31.1075 7.98387V25.0161Z" fill="white"/>
<path d="M27.8363 7.98387C27.8363 5.33825 25.6394 3.19355 22.9294 3.19355C20.2195 3.19355 18.0226 5.33825 18.0226 7.98387V25.0161C18.0226 27.6618 20.2195 29.8065 22.9294 29.8065C25.6394 29.8065 27.8363 27.6618 27.8363 25.0161V7.98387ZM31.1075 25.0161C31.1075 29.4255 27.446 33 22.9294 33C18.4128 33 14.7514 29.4255 14.7514 25.0161V7.98387C14.7514 3.5745 18.4128 0 22.9294 0C27.446 0 31.1075 3.5745 31.1075 7.98387V25.0161Z" fill="white"/>
<path d="M0 32.548V0.501392H3.48841V4.34699L3.213 15.6549L9.63902 0.501392H13.2192L6.28831 16.7994L13.2192 32.548H9.59311L3.25891 18.0355L3.48841 28.2904V32.548H0Z" fill="white"/>
<path d="M42.0423 32.548V23.2545H36.9933V32.548H33.5049V0.501392H36.9933V19.9583H42.0423V0.501392H45.5307V32.548H42.0423Z" fill="white"/>
<path d="M47.5912 3.79762V0.501392H61.3612V3.79762H56.2204V32.548H52.732V3.79762H47.5912Z" fill="white"/>
<path d="M64.4297 0.501392H69.8L73.472 32.548H70.0754L69.6623 29.1602H64.5215L64.1543 32.548H60.7577L64.4297 0.501392ZM67.0919 4.34699L64.9346 25.864H69.2951L67.0919 4.34699Z" fill="white"/>
<path d="M75.5594 32.548V0.501392H79.0478V4.34699L78.7724 15.6549L85.1984 0.501392H88.7786L81.8477 16.7994L88.7786 32.548H85.1525L78.8183 18.0355L79.0478 28.2904V32.548H75.5594Z" fill="white"/>
<path d="M89.4664 3.79762V0.501392H103.236V3.79762H98.0956V32.548H94.6072V3.79762H89.4664Z" fill="white"/>
<path d="M108.787 0.501392V6.86493C115.489 7.4143 120.767 12.9538 120.767 19.6836C120.767 26.7796 114.938 32.548 107.732 32.548H105.299V0.501392H108.787ZM122.512 32.548V0.501392H126V32.548H122.512ZM117.279 19.6836C117.279 14.785 113.928 10.6647 108.787 10.1612V29.206C113.699 29.0229 117.279 24.6279 117.279 19.6836Z" fill="white"/>
</svg>
