<svg width="81" height="33" viewBox="0 0 81 33" fill="none" xmlns="http://www.w3.org/2000/svg">
<path d="M0 4.15729V0.887097H13.9481V4.15729H8.74081V32.6807H5.20729V4.15729H0Z" fill="white"/>
<path d="M16.0374 32.6807V0.887097H18.1761C25.4756 0.887097 31.3803 6.60994 31.3803 13.6499C31.3803 20.2357 26.2195 25.6861 19.5709 26.3674V32.6807H16.0374ZM27.8468 13.6499C27.8468 8.8809 24.4993 4.6569 19.5709 4.24813V23.0517C24.4063 22.7792 27.8468 18.419 27.8468 13.6499Z" fill="white"/>
<path d="M51.9422 32.6807V0.887097H55.4757V4.70232L55.1967 15.9209L61.7058 0.887097H65.3324L58.3118 17.0564L65.3324 32.6807H61.6594L55.2432 18.2827L55.4757 28.4567V32.6807H51.9422Z" fill="white"/>
<path d="M66.9589 0.887097H70.4924V4.6569L70.0275 28.4112L74.5839 4.74774L75.3743 0.887097H81V32.6807H77.4665V28.5475L77.9314 4.97484L73.468 28.4112L72.5846 32.6807H66.9589V0.887097Z" fill="white"/>
<path d="M0 4.15729V0.887097H13.9481V4.15729H8.74081V32.6807H5.20729V4.15729H0Z" fill="white"/>
<path d="M16.0374 32.6807V0.887097H18.1761C25.4756 0.887097 31.3803 6.60994 31.3803 13.6499C31.3803 20.2357 26.2195 25.6861 19.5709 26.3674V32.6807H16.0374ZM27.8468 13.6499C27.8468 8.8809 24.4993 4.6569 19.5709 4.24813V23.0517C24.4063 22.7792 27.8468 18.419 27.8468 13.6499Z" fill="white"/>
<path d="M51.9422 32.6807V0.887097H55.4757V4.70232L55.1967 15.9209L61.7058 0.887097H65.3324L58.3118 17.0564L65.3324 32.6807H61.6594L55.2432 18.2827L55.4757 28.4567V32.6807H51.9422Z" fill="white"/>
<path d="M66.9589 0.887097H70.4924V4.6569L70.0275 28.4112L74.5839 4.74774L75.3743 0.887097H81V32.6807H77.4665V28.5475L77.9314 4.97484L73.468 28.4112L72.5846 32.6807H66.9589V0.887097Z" fill="white"/>
<path d="M46.3121 7.98387C46.3121 5.33825 44.1166 3.19355 41.4084 3.19355C38.7002 3.19355 36.5048 5.33825 36.5048 7.98387V13.5171H46.3121V7.98387ZM49.5812 16.7107H36.5048V25.0161C36.5048 27.6618 38.7002 29.8065 41.4084 29.8065C44.1166 29.8065 46.3121 27.6618 46.3121 25.0161V21.9522H49.5812V25.0161C49.5812 29.4255 45.9221 33 41.4084 33C36.8948 33 33.2357 29.4255 33.2357 25.0161V7.98387C33.2357 3.5745 36.8948 1.94316e-07 41.4084 0C45.9221 0 49.5812 3.5745 49.5812 7.98387V16.7107Z" fill="white"/>
<path d="M46.3121 7.98387C46.3121 5.33825 44.1166 3.19355 41.4084 3.19355C38.7002 3.19355 36.5048 5.33825 36.5048 7.98387V13.5171H46.3121V7.98387ZM49.5812 16.7107H36.5048V25.0161C36.5048 27.6618 38.7002 29.8065 41.4084 29.8065C44.1166 29.8065 46.3121 27.6618 46.3121 25.0161V21.9522H49.5812V25.0161C49.5812 29.4255 45.9221 33 41.4084 33C36.8948 33 33.2357 29.4255 33.2357 25.0161V7.98387C33.2357 3.5745 36.8948 1.94316e-07 41.4084 0C45.9221 0 49.5812 3.5745 49.5812 7.98387V16.7107Z" fill="white"/>
</svg>
