<svg width="21" height="21" viewBox="0 0 21 21" fill="none" xmlns="http://www.w3.org/2000/svg">
<path d="M17.2991 14.2776L15.7885 12.7649L17.2991 11.2542C18.2935 10.251 18.8501 8.89463 18.847 7.48199C18.8439 6.06934 18.2814 4.71543 17.2826 3.71654C16.2837 2.71764 14.9299 2.1551 13.5173 2.15201C12.1048 2.14892 10.7485 2.70552 9.74526 3.70003L8.23364 5.21173L6.72309 3.7011L8.23364 2.19047C9.6361 0.787937 11.5383 0 13.5216 0C15.505 0 17.4072 0.787937 18.8096 2.19047C20.2121 3.59301 21 5.49526 21 7.47874C21 9.46223 20.2121 11.3645 18.8096 12.767L17.2991 14.2776ZM14.2769 17.2989L12.7664 18.8095C11.3639 20.2121 9.46175 21 7.47836 21C5.49498 21 3.59283 20.2121 2.19036 18.8095C0.787897 17.407 2.08984e-08 15.5047 0 13.5213C-2.08984e-08 11.5378 0.787897 9.63552 2.19036 8.23299L3.70198 6.72236L5.21253 8.23512L3.70198 9.74575C2.72116 10.7517 2.17612 12.1035 2.18492 13.5085C2.19372 14.9134 2.75566 16.2583 3.74901 17.2519C4.74236 18.2454 6.08713 18.8076 7.49201 18.8166C8.89688 18.8256 10.2487 18.2807 11.2547 17.3L12.7664 15.7893L14.2769 17.2989ZM13.5216 5.96704L15.0333 7.47874L7.47836 15.0319L5.96781 13.5213L13.5216 5.96704Z" fill="white"/>
</svg>
