<svg width="107" height="61" viewBox="0 0 107 61" fill="none" xmlns="http://www.w3.org/2000/svg">
<g filter="url(#filter0_d_42_106)">
<path d="M10.3502 1.33871H18.8169L24.6061 51.4376H19.2511L18.5998 46.1415H10.4949L9.91603 51.4376H4.56104L10.3502 1.33871ZM14.5474 7.35058L11.1462 40.9884H18.0209L14.5474 7.35058Z" fill="white"/>
<path d="M54.3118 1.33871H59.8116V7.27901L59.0879 44.7101L66.1797 7.42215L67.4099 1.33871H76.1661V51.4376H70.6663V44.9248L71.39 7.78L64.443 44.7101L63.068 51.4376H54.3118V1.33871Z" fill="white"/>
<path d="M101.561 1.33871V51.4376H96.0613V36.5511L88.3906 51.4376H82.3844L90.4892 35.6207C84.1935 32.7579 79.7792 26.6029 79.7792 19.3743C79.7792 9.42611 88.1012 1.33871 98.2323 1.33871H101.561ZM85.2789 19.3743C85.2789 25.744 89.9103 31.1834 96.0613 32.2569V6.63488C89.9103 7.70843 85.2789 13.0046 85.2789 19.3743Z" fill="white"/>
<path d="M10.3502 1.33871H18.8169L24.6061 51.4376H19.2511L18.5998 46.1415H10.4949L9.91603 51.4376H4.56104L10.3502 1.33871ZM14.5474 7.35058L11.1462 40.9884H18.0209L14.5474 7.35058Z" fill="white"/>
<path d="M54.3118 1.33871H59.8116V7.27901L59.0879 44.7101L66.1797 7.42215L67.4099 1.33871H76.1661V51.4376H70.6663V44.9248L71.39 7.78L64.443 44.7101L63.068 51.4376H54.3118V1.33871Z" fill="white"/>
<path d="M101.561 1.33871V51.4376H96.0613V36.5511L88.3906 51.4376H82.3844L90.4892 35.6207C84.1935 32.7579 79.7792 26.6029 79.7792 19.3743C79.7792 9.42611 88.1012 1.33871 98.2323 1.33871H101.561ZM85.2789 19.3743C85.2789 25.744 89.9103 31.1834 96.0613 32.2569V6.63488C89.9103 7.70843 85.2789 13.0046 85.2789 19.3743Z" fill="white"/>
<path d="M46.3969 13.0806C46.3969 8.91179 42.9799 5.53226 38.7647 5.53226C34.5495 5.53226 31.1325 8.91179 31.1325 13.0806V39.9194C31.1325 44.0882 34.5495 47.4677 38.7647 47.4677C42.9799 47.4677 46.3969 44.0882 46.3969 39.9194V34.8423H51.4851V39.9194C51.4851 46.8675 45.79 52.5 38.7647 52.5C31.7394 52.5 26.0443 46.8675 26.0443 39.9194V13.0806C26.0443 6.13255 31.7394 0.5 38.7647 0.5C45.79 0.5 51.4851 6.13255 51.4851 13.0806V16.2051H46.3969V13.0806Z" fill="white"/>
<path d="M46.3969 13.0806C46.3969 8.91179 42.9799 5.53226 38.7647 5.53226C34.5495 5.53226 31.1325 8.91179 31.1325 13.0806V39.9194C31.1325 44.0882 34.5495 47.4677 38.7647 47.4677C42.9799 47.4677 46.3969 44.0882 46.3969 39.9194V34.8423H51.4851V39.9194C51.4851 46.8675 45.79 52.5 38.7647 52.5C31.7394 52.5 26.0443 46.8675 26.0443 39.9194V13.0806C26.0443 6.13255 31.7394 0.5 38.7647 0.5C45.79 0.5 51.4851 6.13255 51.4851 13.0806V16.2051H46.3969V13.0806Z" fill="white"/>
<path d="M10.3502 1.33871H18.8169L24.6061 51.4376H19.2511L18.5998 46.1415H10.4949L9.91603 51.4376H4.56104L10.3502 1.33871ZM14.5474 7.35058L11.1462 40.9884H18.0209L14.5474 7.35058ZM54.3118 1.33871H59.8116V7.27901L59.0879 44.7101L66.1797 7.42215L67.4099 1.33871H76.1661V51.4376H70.6663V44.9248L71.39 7.78L64.443 44.7101L63.068 51.4376H54.3118V1.33871ZM101.561 1.33871V51.4376H96.0613V36.5511L88.3906 51.4376H82.3844L90.4892 35.6207C84.1935 32.7579 79.7792 26.6029 79.7792 19.3743C79.7792 9.42611 88.1012 1.33871 98.2323 1.33871H101.561ZM85.2789 19.3743C85.2789 25.744 89.9103 31.1834 96.0613 32.2569V6.63488C89.9103 7.70843 85.2789 13.0046 85.2789 19.3743ZM46.3969 13.0806C46.3969 8.91179 42.9799 5.53226 38.7647 5.53226C34.5495 5.53226 31.1325 8.91179 31.1325 13.0806V39.9194C31.1325 44.0882 34.5495 47.4677 38.7647 47.4677C42.9799 47.4677 46.3969 44.0882 46.3969 39.9194V34.8423H51.4851V39.9194C51.4851 46.8675 45.79 52.5 38.7647 52.5C31.7394 52.5 26.0443 46.8675 26.0443 39.9194V13.0806C26.0443 6.13255 31.7394 0.5 38.7647 0.5C45.79 0.5 51.4851 6.13255 51.4851 13.0806V16.2051H46.3969V13.0806Z" stroke="black"/>
</g>
<defs>
<filter id="filter0_d_42_106" x="0" y="0" width="106.061" height="61" filterUnits="userSpaceOnUse" color-interpolation-filters="sRGB">
<feFlood flood-opacity="0" result="BackgroundImageFix"/>
<feColorMatrix in="SourceAlpha" type="matrix" values="0 0 0 0 0 0 0 0 0 0 0 0 0 0 0 0 0 0 127 0" result="hardAlpha"/>
<feOffset dy="4"/>
<feGaussianBlur stdDeviation="2"/>
<feComposite in2="hardAlpha" operator="out"/>
<feColorMatrix type="matrix" values="0 0 0 0 0 0 0 0 0 0 0 0 0 0 0 0 0 0 0.25 0"/>
<feBlend mode="normal" in2="BackgroundImageFix" result="effect1_dropShadow_42_106"/>
<feBlend mode="normal" in="SourceGraphic" in2="effect1_dropShadow_42_106" result="shape"/>
</filter>
</defs>
</svg>
