<svg width="178" height="45" viewBox="0 0 178 45" fill="none" xmlns="http://www.w3.org/2000/svg">
<path d="M0 41.5013V0.683337H4.64318V5.58149L4.27661 19.9844L12.8298 0.683337H17.5952L8.36994 21.4422L17.5952 41.5013H12.7687L4.3377 23.0166L4.64318 36.0784V41.5013H0Z" fill="white"/>
<path d="M55.7052 41.5013V29.6641H48.9848V41.5013H44.3417V0.683337H48.9848V25.4657H55.7052V0.683337H60.3484V41.5013H55.7052Z" fill="white"/>
<path d="M64.3128 41.5013V0.683337H68.956V37.3029H75.3098V0.683337H79.953V37.3029H82.6412V45H77.998V41.5013H64.3128Z" fill="white"/>
<path d="M110.206 41.5013V0.683337H113.016C122.608 0.683337 130.367 8.03057 130.367 17.0688C130.367 25.524 123.585 32.5214 114.849 33.396V41.5013H110.206ZM125.724 17.0688C125.724 10.9461 121.325 5.52318 114.849 4.99838V29.1393C121.203 28.7894 125.724 23.1915 125.724 17.0688Z" fill="white"/>
<path d="M129.373 4.88176V0.683337H147.701V4.88176H140.858V41.5013H136.215V4.88176H129.373Z" fill="white"/>
<path d="M155.09 0.683337V8.78862C164.009 9.48836 171.035 16.544 171.035 25.1158C171.035 34.1541 163.276 41.5013 153.684 41.5013H150.446V0.683337H155.09ZM173.357 41.5013V0.683337H178V41.5013H173.357ZM166.392 25.1158C166.392 18.8765 161.932 13.6285 155.09 12.987V37.2446C161.627 37.0113 166.392 31.4134 166.392 25.1158Z" fill="white"/>
<path d="M0 41.5013V0.683337H4.64318V5.58149L4.27661 19.9844L12.8298 0.683337H17.5952L8.36994 21.4422L17.5952 41.5013H12.7687L4.3377 23.0166L4.64318 36.0784V41.5013H0Z" fill="white"/>
<path d="M55.7052 41.5013V29.6641H48.9848V41.5013H44.3417V0.683337H48.9848V25.4657H55.7052V0.683337H60.3484V41.5013H55.7052Z" fill="white"/>
<path d="M64.3128 41.5013V0.683337H68.956V37.3029H75.3098V0.683337H79.953V37.3029H82.6412V45H77.998V41.5013H64.3128Z" fill="white"/>
<path d="M110.206 41.5013V0.683337H113.016C122.608 0.683337 130.367 8.03057 130.367 17.0688C130.367 25.524 123.585 32.5214 114.849 33.396V41.5013H110.206ZM125.724 17.0688C125.724 10.9461 121.325 5.52318 114.849 4.99838V29.1393C121.203 28.7894 125.724 23.1915 125.724 17.0688Z" fill="white"/>
<path d="M129.373 4.88176V0.683337H147.701V4.88176H140.858V41.5013H136.215V4.88176H129.373Z" fill="white"/>
<path d="M155.09 0.683337V8.78862C164.009 9.48836 171.035 16.544 171.035 25.1158C171.035 34.1541 163.276 41.5013 153.684 41.5013H150.446V0.683337H155.09ZM173.357 41.5013V0.683337H178V41.5013H173.357ZM166.392 25.1158C166.392 18.8765 161.932 13.6285 155.09 12.987V37.2446C161.627 37.0113 166.392 31.4134 166.392 25.1158Z" fill="white"/>
<path d="M101.904 10.25C101.904 6.85348 99.0187 4.10002 95.46 4.10002C91.9013 4.10002 89.0165 6.85348 89.0165 10.25V17.8095H101.904V10.25ZM106.199 21.9095H89.0165V32.1168C89.0165 35.5134 91.9013 38.2669 95.46 38.2669C99.0187 38.2669 101.904 35.5134 101.904 32.1168V28.6387H106.199V32.1168C106.199 37.7778 101.391 42.3669 95.46 42.3669C89.5289 42.3669 84.7208 37.7778 84.7208 32.1168V10.25C84.7208 4.5891 89.5289 0 95.46 0C101.391 0 106.199 4.5891 106.199 10.25V21.9095Z" fill="white"/>
<path d="M101.904 10.25C101.904 6.85348 99.0187 4.10002 95.46 4.10002C91.9013 4.10002 89.0165 6.85348 89.0165 10.25V17.8095H101.904V10.25ZM106.199 21.9095H89.0165V32.1168C89.0165 35.5134 91.9013 38.2669 95.46 38.2669C99.0187 38.2669 101.904 35.5134 101.904 32.1168V28.6387H106.199V32.1168C106.199 37.7778 101.391 42.3669 95.46 42.3669C89.5289 42.3669 84.7208 37.7778 84.7208 32.1168V10.25C84.7208 4.5891 89.5289 0 95.46 0C101.391 0 106.199 4.5891 106.199 10.25V21.9095Z" fill="white"/>
<path d="M36.5782 10.25C36.5782 6.85348 33.6934 4.10002 30.1347 4.10002C26.576 4.10002 23.6911 6.85348 23.6911 10.25V32.1168C23.6911 35.5134 26.576 38.2669 30.1347 38.2669C33.6934 38.2669 36.5782 35.5134 36.5782 32.1168V10.25ZM40.8739 32.1168C40.8739 37.7778 36.0658 42.3669 30.1347 42.3669C24.2036 42.3669 19.3954 37.7778 19.3954 32.1168V10.25C19.3954 4.5891 24.2036 0 30.1347 0C36.0658 0 40.8739 4.5891 40.8739 10.25V32.1168Z" fill="white"/>
<path d="M36.5782 10.25C36.5782 6.85348 33.6934 4.10002 30.1347 4.10002C26.576 4.10002 23.6911 6.85348 23.6911 10.25V32.1168C23.6911 35.5134 26.576 38.2669 30.1347 38.2669C33.6934 38.2669 36.5782 35.5134 36.5782 32.1168V10.25ZM40.8739 32.1168C40.8739 37.7778 36.0658 42.3669 30.1347 42.3669C24.2036 42.3669 19.3954 37.7778 19.3954 32.1168V10.25C19.3954 4.5891 24.2036 0 30.1347 0C36.0658 0 40.8739 4.5891 40.8739 10.25V32.1168Z" fill="white"/>
</svg>
