<svg width="115" height="51" viewBox="0 0 115 51" fill="none" xmlns="http://www.w3.org/2000/svg">
<g filter="url(#filter0_d_42_272)">
<path d="M4 5.41708V1.15591H22.4253V5.41708H15.5465V42.5839H10.8788V5.41708H4Z" fill="white"/>
<path d="M25.1852 42.5839V1.15591H28.0104C37.653 1.15591 45.453 8.61295 45.453 17.7863C45.453 26.3678 38.6357 33.4697 29.853 34.3575V42.5839H25.1852ZM40.7853 17.7863C40.7853 11.5721 36.3632 6.06809 29.853 5.53544V30.0371C36.2404 29.682 40.7853 24.0005 40.7853 17.7863Z" fill="white"/>
<path d="M72.615 42.5839V1.15591H77.2827V6.12727L76.9142 20.7454L85.5127 1.15591H90.3032L81.0292 22.225L90.3032 42.5839H85.4512L76.9756 23.8229L77.2827 37.0799V42.5839H72.615Z" fill="white"/>
<path d="M92.4519 1.15591H97.1196V6.06809L96.5054 37.0207L102.524 6.18646L103.568 1.15591H111V42.5839H106.332V37.1982L106.946 6.48237L101.05 37.0207L99.8834 42.5839H92.4519V1.15591Z" fill="white"/>
<path d="M4 5.41708V1.15591H22.4253V5.41708H15.5465V42.5839H10.8788V5.41708H4Z" fill="white"/>
<path d="M25.1852 42.5839V1.15591H28.0104C37.653 1.15591 45.453 8.61295 45.453 17.7863C45.453 26.3678 38.6357 33.4697 29.853 34.3575V42.5839H25.1852ZM40.7853 17.7863C40.7853 11.5721 36.3632 6.06809 29.853 5.53544V30.0371C36.2404 29.682 40.7853 24.0005 40.7853 17.7863Z" fill="white"/>
<path d="M72.615 42.5839V1.15591H77.2827V6.12727L76.9142 20.7454L85.5127 1.15591H90.3032L81.0292 22.225L90.3032 42.5839H85.4512L76.9756 23.8229L77.2827 37.0799V42.5839H72.615Z" fill="white"/>
<path d="M92.4519 1.15591H97.1196V6.06809L96.5054 37.0207L102.524 6.18646L103.568 1.15591H111V42.5839H106.332V37.1982L106.946 6.48237L101.05 37.0207L99.8834 42.5839H92.4519V1.15591Z" fill="white"/>
<path d="M65.1777 10.4032C65.1777 6.9559 62.2775 4.16129 58.7 4.16129C55.1225 4.16129 52.2224 6.9559 52.2224 10.4032V17.6132H65.1777V10.4032ZM69.4961 21.7745H52.2224V32.5968C52.2224 36.0441 55.1225 38.8387 58.7 38.8387C62.2775 38.8387 65.1777 36.0441 65.1777 32.5968V28.6044H69.4961V32.5968C69.4961 38.3423 64.6625 43 58.7 43C52.7375 43 47.904 38.3423 47.904 32.5968V10.4032C47.904 4.65768 52.7375 2.532e-07 58.7 0C64.6625 0 69.4961 4.65768 69.4961 10.4032V21.7745Z" fill="white"/>
<path d="M65.1777 10.4032C65.1777 6.9559 62.2775 4.16129 58.7 4.16129C55.1225 4.16129 52.2224 6.9559 52.2224 10.4032V17.6132H65.1777V10.4032ZM69.4961 21.7745H52.2224V32.5968C52.2224 36.0441 55.1225 38.8387 58.7 38.8387C62.2775 38.8387 65.1777 36.0441 65.1777 32.5968V28.6044H69.4961V32.5968C69.4961 38.3423 64.6625 43 58.7 43C52.7375 43 47.904 38.3423 47.904 32.5968V10.4032C47.904 4.65768 52.7375 2.532e-07 58.7 0C64.6625 0 69.4961 4.65768 69.4961 10.4032V21.7745Z" fill="white"/>
</g>
<defs>
<filter id="filter0_d_42_272" x="0" y="0" width="115" height="51" filterUnits="userSpaceOnUse" color-interpolation-filters="sRGB">
<feFlood flood-opacity="0" result="BackgroundImageFix"/>
<feColorMatrix in="SourceAlpha" type="matrix" values="0 0 0 0 0 0 0 0 0 0 0 0 0 0 0 0 0 0 127 0" result="hardAlpha"/>
<feOffset dy="4"/>
<feGaussianBlur stdDeviation="2"/>
<feComposite in2="hardAlpha" operator="out"/>
<feColorMatrix type="matrix" values="0 0 0 0 0 0 0 0 0 0 0 0 0 0 0 0 0 0 0.25 0"/>
<feBlend mode="normal" in2="BackgroundImageFix" result="effect1_dropShadow_42_272"/>
<feBlend mode="normal" in="SourceGraphic" in2="effect1_dropShadow_42_272" result="shape"/>
</filter>
</defs>
</svg>
