<svg width="91" height="43" viewBox="0 0 91 43" fill="none" xmlns="http://www.w3.org/2000/svg">
<path d="M17.5587 42.1215H10.5113L6.74875 5.42817L4.8376 36.6767L4.41954 42.1215H0L2.86673 0.693548H10.6905L11.7058 9.27506L14.035 36.5583L16.3642 9.27506L17.3795 0.693548H25.2033L28.07 42.1215H23.6505L23.2324 36.6767L21.3213 5.42817L17.5587 42.1215Z" fill="white"/>
<path d="M53.9827 42.1215V0.693548H56.7299C66.1065 0.693548 73.6914 8.15058 73.6914 17.3239C73.6914 25.9054 67.0621 33.0074 58.5216 33.8951V42.1215H53.9827ZM69.1524 17.3239C69.1524 11.1097 64.8523 5.60572 58.5216 5.07308V29.5748C64.7329 29.2197 69.1524 23.5381 69.1524 17.3239Z" fill="white"/>
<path d="M86.461 42.1215V32.6523C85.7443 33.3625 84.5499 33.5992 83.2957 33.5992C79.115 33.5992 75.7108 30.2258 75.7108 26.083V0.693548H80.2498V26.3197C80.2498 27.9768 81.6234 29.338 83.2957 29.338C85.0874 29.338 86.461 27.9768 86.461 26.3197V0.693548H91V42.1215H86.461Z" fill="white"/>
<path d="M17.5587 42.1215H10.5113L6.74875 5.42817L4.8376 36.6767L4.41954 42.1215H0L2.86673 0.693548H10.6905L11.7058 9.27506L14.035 36.5583L16.3642 9.27506L17.3795 0.693548H25.2033L28.07 42.1215H23.6505L23.2324 36.6767L21.3213 5.42817L17.5587 42.1215Z" fill="white"/>
<path d="M53.9827 42.1215V0.693548H56.7299C66.1065 0.693548 73.6914 8.15058 73.6914 17.3239C73.6914 25.9054 67.0621 33.0074 58.5216 33.8951V42.1215H53.9827ZM69.1524 17.3239C69.1524 11.1097 64.8523 5.60572 58.5216 5.07308V29.5748C64.7329 29.2197 69.1524 23.5381 69.1524 17.3239Z" fill="white"/>
<path d="M86.461 42.1215V32.6523C85.7443 33.3625 84.5499 33.5992 83.2957 33.5992C79.115 33.5992 75.7108 30.2258 75.7108 26.083V0.693548H80.2498V26.3197C80.2498 27.9768 81.6234 29.338 83.2957 29.338C85.0874 29.338 86.461 27.9768 86.461 26.3197V0.693548H91V42.1215H86.461Z" fill="white"/>
<path d="M47.2171 10.4032C47.2171 6.95592 44.397 4.16129 40.9182 4.16129C37.4394 4.16129 34.6192 6.95591 34.6192 10.4032V16.9224H47.2171V10.4032ZM51.4164 21.0837H34.6192V32.5968C34.6192 36.0441 37.4394 38.8387 40.9182 38.8387C44.397 38.8387 47.2171 36.0441 47.2171 32.5968V28.1266H51.4164V32.5968C51.4164 38.3423 46.7162 43 40.9182 43C35.1202 43 30.4199 38.3423 30.4199 32.5968V10.4032C30.4199 4.65768 35.1201 0 40.9182 0C46.7162 1.54907e-06 51.4164 4.65771 51.4164 10.4032V21.0837Z" fill="white"/>
<path d="M47.2171 10.4032C47.2171 6.95592 44.397 4.16129 40.9182 4.16129C37.4394 4.16129 34.6192 6.95591 34.6192 10.4032V16.9224H47.2171V10.4032ZM51.4164 21.0837H34.6192V32.5968C34.6192 36.0441 37.4394 38.8387 40.9182 38.8387C44.397 38.8387 47.2171 36.0441 47.2171 32.5968V28.1266H51.4164V32.5968C51.4164 38.3423 46.7162 43 40.9182 43C35.1202 43 30.4199 38.3423 30.4199 32.5968V10.4032C30.4199 4.65768 35.1201 0 40.9182 0C46.7162 1.54907e-06 51.4164 4.65771 51.4164 10.4032V21.0837Z" fill="white"/>
</svg>
