<svg width="48" height="48" viewBox="0 0 48 48" fill="none" xmlns="http://www.w3.org/2000/svg">
  <circle cx="24" cy="24" r="22" fill="#21A038"/>
  <path d="M24 12C17.4 12 12 17.4 12 24C12 30.6 17.4 36 24 36C30.6 36 36 30.6 36 24C36 17.4 30.6 12 24 12ZM28 26.5C28 28.4 26.4 30 24.5 30H19.5C18.7 30 18 29.3 18 28.5C18 27.7 18.7 27 19.5 27H24.5C24.8 27 25 26.8 25 26.5C25 26.2 24.8 26 24.5 26H21.5C19.6 26 18 24.4 18 22.5C18 20.6 19.6 19 21.5 19H28.5C29.3 19 30 19.7 30 20.5C30 21.3 29.3 22 28.5 22H21.5C21.2 22 21 22.2 21 22.5C21 22.8 21.2 23 21.5 23H24.5C26.4 23 28 24.6 28 26.5Z" fill="white"/>
</svg>
