<svg width="48" height="48" viewBox="0 0 48 48" fill="none" xmlns="http://www.w3.org/2000/svg">
  <circle cx="24" cy="24" r="22" fill="#1DB954"/>
  <path d="M32.5 20.5C27.5 17.5 18.5 17.2 13.5 18.8C12.7 19 12 18.5 11.8 17.7C11.6 16.9 12.1 16.2 12.9 16C18.5 14.2 28.3 14.6 34 18C34.7 18.4 34.9 19.3 34.5 20C34.1 20.7 33.2 20.9 32.5 20.5ZM32.3 25.5C31.9 26.1 31.2 26.3 30.6 25.9C26.5 23.4 20.3 22.7 14.8 24.2C14.1 24.4 13.4 24 13.2 23.3C13 22.6 13.4 21.9 14.1 21.7C20.3 20.1 27.1 20.9 31.8 23.7C32.4 24.1 32.6 24.9 32.3 25.5ZM30.3 30.3C30 30.8 29.4 30.9 28.9 30.6C25.4 28.5 21 28 15.5 29.2C14.9 29.3 14.4 29 14.3 28.4C14.2 27.8 14.5 27.3 15.1 27.2C21.1 25.9 26 26.5 30 28.9C30.5 29.2 30.6 29.8 30.3 30.3Z" fill="white"/>
</svg>
