<svg width="21" height="20" viewBox="0 0 21 20" fill="none" xmlns="http://www.w3.org/2000/svg">
<path d="M11.4545 18.9475C11.4545 15.4637 14.0223 12.6324 17.1818 12.6324C18.1364 12.6324 19.0145 12.885 19.7973 13.3376L20.9618 8.72764L21 8.42241C21 7.84353 20.5705 7.3699 20.0455 7.3699H15.6736L11.2923 0.465446C11.2058 0.323112 11.0891 0.206278 10.9523 0.125148C10.8154 0.0440175 10.6627 0.00105746 10.5073 1.92752e-05C10.3519 -0.00101891 10.1987 0.0398964 10.061 0.119192C9.92329 0.198488 9.80528 0.313753 9.71727 0.454921L5.32636 7.3699H0.954545C0.429545 7.3699 0 7.84353 0 8.42241L0.0954546 8.88551L2.58682 18.8422C2.90182 19.5264 3.55091 20 4.29545 20H11.5405C11.4927 19.6527 11.4545 19.3053 11.4545 18.9475ZM10.5 2.88621L13.3636 7.3699H7.63636L10.5 2.88621ZM8.59091 13.6849C8.59091 12.5272 9.45 11.5799 10.5 11.5799C11.55 11.5799 12.4091 12.5272 12.4091 13.6849C12.4091 14.8427 11.5595 15.79 10.5 15.79C9.44045 15.79 8.59091 14.8532 8.59091 13.6849Z" fill="white"/>
</svg>
