<svg width="25" height="21" viewBox="0 0 25 21" fill="none" xmlns="http://www.w3.org/2000/svg">
<path d="M18.0145 3.66C18.3197 3.66 18.6225 3.72062 18.9037 3.83924C19.1848 3.95785 19.4396 4.13253 19.6525 4.35106C19.8653 4.56955 20.0322 4.82885 20.1434 5.11283C20.2522 5.39065 20.3049 5.68695 20.2998 5.98513L20.3008 10.5478C20.3059 10.8461 20.2523 11.1431 20.1434 11.4211C20.0322 11.7051 19.8654 11.9644 19.6525 12.1828C19.5794 12.2579 19.4989 12.3249 19.4165 12.389L20.0757 13.0482C20.3744 13.3467 20.3751 13.8308 20.0767 14.1296C19.7783 14.4282 19.2941 14.4288 18.9953 14.1306L17.7148 12.851C17.5129 12.8243 17.3147 12.7731 17.1262 12.6937C16.8451 12.5751 16.5904 12.4013 16.3774 12.1828C16.1646 11.9644 15.9978 11.705 15.8865 11.4211C15.7776 11.1431 15.7251 10.8461 15.7302 10.5478L15.7292 5.98513C15.7241 5.6869 15.7777 5.3907 15.8865 5.11283C15.9978 4.82875 16.1645 4.5696 16.3774 4.35106C16.5904 4.13248 16.845 3.95785 17.1262 3.83924C17.4073 3.7207 17.7094 3.66003 18.0145 3.66ZM4.17319 12.0693V5.98513C4.17311 5.68518 4.23175 5.388 4.34646 5.11084C4.4613 4.83346 4.63003 4.58123 4.84235 4.36899C5.05479 4.15669 5.30763 3.98779 5.5852 3.87309C5.86241 3.7586 6.15957 3.70153 6.4595 3.70182L7.98004 3.70082C8.40222 3.70104 8.7448 4.04335 8.7448 4.46558C8.74457 4.88761 8.40208 5.23012 7.98004 5.23033H6.4585C6.35928 5.2302 6.26043 5.2492 6.16873 5.28709C6.0772 5.32496 5.99385 5.38039 5.92377 5.4504C5.85372 5.5204 5.79841 5.6039 5.76046 5.69536C5.72251 5.78703 5.70264 5.88592 5.70271 5.98513V8.26247H7.21927C7.64149 8.26264 7.98403 8.60497 7.98403 9.02723C7.984 9.44946 7.64148 9.79182 7.21927 9.79198H5.70271V12.0693C5.70246 12.4915 5.36016 12.8341 4.93795 12.8341C4.51574 12.8341 4.17344 12.4915 4.17319 12.0693ZM12.6871 12.0693V9.79198H11.1755V12.0693C11.1752 12.4914 10.8329 12.834 10.4107 12.8341C9.98852 12.8341 9.64622 12.4915 9.64598 12.0693V5.98513C9.64088 5.687 9.69359 5.39062 9.80231 5.11283C9.91359 4.82871 10.0813 4.56962 10.2942 4.35106C10.5072 4.13248 10.7618 3.95785 11.0431 3.83924C11.3241 3.72072 11.6262 3.66001 11.9313 3.66C12.2363 3.66 12.5385 3.72076 12.8195 3.83924C13.1007 3.95785 13.3553 4.13248 13.5683 4.35106C13.7813 4.56964 13.949 4.82867 14.0603 5.11283C14.169 5.39064 14.2217 5.68698 14.2166 5.98513V12.0693C14.2163 12.4915 13.874 12.8341 13.4518 12.8341C13.0298 12.8339 12.6873 12.4913 12.6871 12.0693ZM18.0145 5.18951C17.9136 5.18955 17.8137 5.21004 17.7207 5.24925C17.6277 5.28851 17.5432 5.34622 17.4728 5.41854C17.4024 5.49082 17.3472 5.57654 17.3105 5.67047C17.2737 5.76433 17.2561 5.86447 17.2587 5.96522V10.5677C17.2561 10.6684 17.2737 10.7686 17.3105 10.8624C17.3473 10.9565 17.4023 11.043 17.4728 11.1154C17.5432 11.1876 17.6278 11.2444 17.7207 11.2837C17.7622 11.3012 17.8054 11.3137 17.8492 11.3235C17.9578 11.2995 18.0701 11.2996 18.1788 11.3235C18.223 11.3136 18.2673 11.3014 18.3092 11.2837C18.4019 11.2445 18.4859 11.1874 18.5562 11.1154C18.6267 11.043 18.6827 10.9565 18.7195 10.8624C18.7562 10.7686 18.7738 10.6684 18.7713 10.5677V5.96522C18.7738 5.86452 18.7562 5.76428 18.7195 5.67047C18.6827 5.57642 18.6267 5.49088 18.5562 5.41854C18.4858 5.34631 18.4021 5.28851 18.3092 5.24925C18.2162 5.21 18.1155 5.18951 18.0145 5.18951ZM11.9313 5.18951C11.8303 5.18952 11.7305 5.21003 11.6375 5.24925C11.5445 5.28851 11.4601 5.3462 11.3896 5.41854C11.3192 5.49084 11.2641 5.5765 11.2273 5.67047C11.1905 5.76435 11.1729 5.86444 11.1755 5.96522V8.26247H12.6871V5.98513C12.6871 5.97865 12.6879 5.9717 12.6881 5.96522C12.6906 5.86454 12.673 5.76426 12.6363 5.67047C12.5995 5.57646 12.5434 5.49086 12.473 5.41854C12.4025 5.3462 12.3181 5.28851 12.225 5.24925C12.132 5.21007 12.0322 5.18951 11.9313 5.18951Z" fill="white"/>
<path d="M1.52951 1.8392C1.52959 1.75709 1.56206 1.67819 1.62013 1.62013C1.67821 1.56207 1.75708 1.52956 1.8392 1.52951H22.638L22.6987 1.53549C22.758 1.54759 22.8127 1.5776 22.856 1.62112C22.9138 1.67915 22.9466 1.75733 22.9467 1.8392V15.6944C22.9467 15.7764 22.9139 15.8554 22.856 15.9135C22.7982 15.9715 22.7199 16.0048 22.638 16.0051H20.1495C19.9214 16.0052 19.7053 16.107 19.56 16.2829C19.4148 16.4588 19.3556 16.6903 19.3987 16.9142C19.5484 17.6911 19.8045 18.4406 20.1545 19.1448C19.3422 19.0329 18.6548 18.8108 18.0723 18.4975C17.1855 18.0205 16.4968 17.3133 15.9683 16.3895C15.832 16.1515 15.5783 16.0051 15.3041 16.0051H1.8392C1.75715 16.0051 1.6782 15.9725 1.62013 15.9145C1.56199 15.8564 1.52951 15.7766 1.52951 15.6944V1.8392ZM0 15.6944C0 16.1823 0.193742 16.6509 0.538713 16.9959C0.883618 17.3407 1.35149 17.5346 1.8392 17.5346H14.8759C15.501 18.4985 16.3127 19.2881 17.3474 19.8448C18.5135 20.4721 19.9183 20.7798 21.5745 20.756C21.861 20.7516 22.1214 20.5875 22.2486 20.3308C22.3756 20.074 22.3482 19.7675 22.1779 19.5371C21.7272 18.9272 21.3796 18.2505 21.1413 17.5346H22.6439C23.1304 17.5327 23.5961 17.3375 23.9394 16.9929C24.2829 16.6481 24.4762 16.1811 24.4762 15.6944V1.8392C24.4761 1.35266 24.2828 0.886401 23.9394 0.541702C23.5961 0.196997 23.1305 0.00192155 22.6439 0H1.8392C1.35143 5.25268e-05 0.883633 0.19382 0.538713 0.538715C0.193812 0.883616 7.80201e-05 1.35144 0 1.8392V15.6944Z" fill="white"/>
</svg>
