<svg width="97" height="52" viewBox="0 0 97 52" fill="none" xmlns="http://www.w3.org/2000/svg">
<path d="M5.78918 0.83871H14.2559L20.045 50.9376H14.6901L14.0388 45.6415H5.93391L5.355 50.9376H0L5.78918 0.83871ZM9.98634 6.85058L6.5852 40.4884H13.4599L9.98634 6.85058Z" fill="white"/>
<path d="M49.7508 0.83871H55.2505V6.77901L54.5269 44.2101L61.6187 6.92215L62.8489 0.83871H71.605V50.9376H66.1053V44.4248L66.829 7.28L59.8819 44.2101L58.507 50.9376H49.7508V0.83871Z" fill="white"/>
<path d="M97 0.83871V50.9376H91.5003V36.0511L83.8296 50.9376H77.8233L85.9282 35.1207C79.6324 32.2579 75.2182 26.1029 75.2182 18.8743C75.2182 8.92611 83.5401 0.83871 93.6712 0.83871H97ZM80.7179 18.8743C80.7179 25.244 85.3493 30.6834 91.5003 31.7569V6.13488C85.3493 7.20843 80.7179 12.5046 80.7179 18.8743Z" fill="white"/>
<path d="M5.78918 0.83871H14.2559L20.045 50.9376H14.6901L14.0388 45.6415H5.93391L5.355 50.9376H0L5.78918 0.83871ZM9.98634 6.85058L6.5852 40.4884H13.4599L9.98634 6.85058Z" fill="white"/>
<path d="M49.7508 0.83871H55.2505V6.77901L54.5269 44.2101L61.6187 6.92215L62.8489 0.83871H71.605V50.9376H66.1053V44.4248L66.829 7.28L59.8819 44.2101L58.507 50.9376H49.7508V0.83871Z" fill="white"/>
<path d="M97 0.83871V50.9376H91.5003V36.0511L83.8296 50.9376H77.8233L85.9282 35.1207C79.6324 32.2579 75.2182 26.1029 75.2182 18.8743C75.2182 8.92611 83.5401 0.83871 93.6712 0.83871H97ZM80.7179 18.8743C80.7179 25.244 85.3493 30.6834 91.5003 31.7569V6.13488C85.3493 7.20843 80.7179 12.5046 80.7179 18.8743Z" fill="white"/>
<path d="M41.8359 12.5806C41.8359 8.41179 38.4188 5.03226 34.2037 5.03226C29.9885 5.03226 26.5715 8.41179 26.5714 12.5806V39.4194C26.5714 43.5882 29.9885 46.9677 34.2037 46.9677C38.4188 46.9677 41.8359 43.5882 41.8359 39.4194V34.3423H46.924V39.4194C46.924 46.3675 41.2289 52 34.2037 52C27.1784 52 21.4833 46.3675 21.4833 39.4194V12.5806C21.4833 5.63255 27.1784 0 34.2037 0C41.2289 0 46.924 5.63255 46.924 12.5806V15.7051H41.8359V12.5806Z" fill="white"/>
<path d="M41.8359 12.5806C41.8359 8.41179 38.4188 5.03226 34.2037 5.03226C29.9885 5.03226 26.5715 8.41179 26.5714 12.5806V39.4194C26.5714 43.5882 29.9885 46.9677 34.2037 46.9677C38.4188 46.9677 41.8359 43.5882 41.8359 39.4194V34.3423H46.924V39.4194C46.924 46.3675 41.2289 52 34.2037 52C27.1784 52 21.4833 46.3675 21.4833 39.4194V12.5806C21.4833 5.63255 27.1784 0 34.2037 0C41.2289 0 46.924 5.63255 46.924 12.5806V15.7051H41.8359V12.5806Z" fill="white"/>
</svg>
