<svg width="25" height="34" viewBox="0 0 25 34" fill="none" xmlns="http://www.w3.org/2000/svg">
<path d="M10.4665 0.00158497C10.6553 0.012015 10.8382 0.0743525 10.9946 0.180621C19.994 6.29476 24.4613 10.7222 24.4618 13.9324C24.4618 17.0386 22.7549 19.5545 19.4738 21.3929C18.5662 21.9022 17.5554 20.9087 18.0487 19.9928C18.8956 18.4149 18.6169 16.6471 17.089 14.5447C16.1494 13.2518 14.966 12.1662 13.5352 11.2827V27.8704C13.5352 27.9104 13.5303 27.9507 13.528 27.9904C13.5295 28.0379 13.5334 28.0856 13.5334 28.1336C13.5334 31.219 10.4508 33.5996 6.76579 33.5996C3.08099 33.5994 0 31.2189 0 28.1336C6.98379e-05 25.0484 3.08103 22.6696 6.76579 22.6694C7.68409 22.6694 8.56579 22.8151 9.37077 23.0848V8.73319C9.37059 8.72543 9.36898 8.7177 9.36898 8.70992V1.04C9.36919 0.850958 9.41997 0.664772 9.51758 0.502887C9.61519 0.341063 9.75517 0.208143 9.9222 0.119749C10.0892 0.0314386 10.2779 -0.00873717 10.4665 0.00158497Z" fill="white"/>
</svg>
