<svg width="596" height="144" viewBox="0 0 596 144" fill="none" xmlns="http://www.w3.org/2000/svg">
<path fill-rule="evenodd" clip-rule="evenodd" d="M486.41 7.3501C480.12 7.3501 475 12.4301 475 18.7201C475 25.0101 480.03 30.0901 486.37 30.0901C492.71 30.0901 497.74 24.9601 497.74 18.7201C497.74 12.3801 492.71 7.3501 486.42 7.3501H486.41Z" fill="white"/>
<path d="M496.27 45.6101H476.54V141.76H496.27V45.6101Z" fill="white"/>
<path fill-rule="evenodd" clip-rule="evenodd" d="M553.83 127.01C538.5 127.01 528.34 114.77 528.34 93.6401C528.34 72.5101 538.35 60.3201 553.63 60.3201C566.5 60.3201 574.19 68.4901 576.22 78.7001L595.08 78.6501C593.34 59.7401 578.25 43.8301 553.49 43.8301C526.16 43.8301 508.22 63.1301 508.22 93.6501C508.22 124.17 526.12 143.56 553.63 143.56C576.75 143.56 593.14 129.68 595.22 109.17H576.21C573.94 120.34 566.01 127.02 553.82 127.02L553.83 127.01Z" fill="white"/>
<path fill-rule="evenodd" clip-rule="evenodd" d="M425.61 128.6C413.57 128.6 406.7 123.67 404.86 113.61H385.27C387.11 131.89 401.52 143.69 425.56 143.69C448.24 143.69 464.59 131.65 464.59 114.09C464.59 100.16 457.14 92.4701 437.46 87.9201L421.84 84.3401C411.39 81.9701 407.04 77.8101 407.04 71.8101C407.04 64.0701 414.15 58.9001 424.84 58.9001C435.53 58.9001 442.78 64.7501 443.85 74.0401H462.37C461.69 56.2901 447.18 43.8601 424.79 43.8601C402.4 43.8601 387.74 55.6601 387.79 72.8801C387.79 86.8601 396.83 95.6601 415.12 99.8701L430.74 103.55C441.28 105.92 444.81 109.55 444.81 115.79C444.81 123.67 437.46 128.61 425.61 128.61V128.6Z" fill="white"/>
<path fill-rule="evenodd" clip-rule="evenodd" d="M273.46 141.76V9.87012H249.66L207.1 114.96H206.37L163.72 9.87012H140.06V141.76H158.69V44.6901H159.31L199.12 141.76H214.3L254.11 44.6901H254.74V141.76H273.46Z" fill="white"/>
<path fill-rule="evenodd" clip-rule="evenodd" d="M290.959 45.6101V107.86C290.959 129.91 303.829 143.5 324.719 143.5C339.419 143.5 349.189 137.02 354.509 125.51H354.989V141.76H373.899L373.849 45.6101H354.069V101.66C354.069 116.65 345.509 126.52 331.239 126.52C316.969 126.52 310.679 118.64 310.679 104.03V45.6101H290.949H290.959Z" fill="white"/>
<path fill-rule="evenodd" clip-rule="evenodd" d="M60.65 33.9C60.55 33.03 60.5 32.11 60.5 31.19C60.5 24.32 63.5 16.92 68.82 10.88C71.48 7.83 74.87 5.32 78.98 3.29C83.04 1.26 86.91 0.19 90.59 0C90.64 0.92 90.69 1.89 90.69 2.85C90.69 10.01 88.08 16.73 82.85 22.92C76.51 30.27 68.92 34.58 60.65 33.9ZM37 34.34C30.66 34.44 24.76 36.08 19.3 39.37C13.88 42.56 9.53 46.96 6.24 52.57C2.08 59.49 0 67.81 0 77.43C0 85.8 1.55 94.5 4.69 103.35C7.59 111.67 11.27 118.92 15.72 125.21C19.88 131.06 23.31 135.22 26.12 137.64C30.47 141.7 34.78 143.64 39.18 143.44C42.03 143.39 45.76 142.38 50.45 140.49C55.09 138.6 59.45 137.68 63.51 137.68C67.57 137.68 71.59 138.6 76.18 140.49C80.77 142.42 84.69 143.34 87.98 143.34C92.53 143.24 96.78 141.36 100.75 137.73C103.36 135.46 106.65 131.49 110.71 125.69C113.66 121.43 116.22 116.84 118.4 111.81C119.27 109.68 120.14 107.46 120.91 105.18C117.19 103.63 113.9 101.46 110.95 98.65C104.42 92.6 101.08 84.96 100.99 75.82C100.84 64.07 106.16 54.93 117 48.35C111 39.74 101.86 35 89.82 34.03C85.37 33.64 79.95 34.61 73.47 36.93C66.65 39.44 62.68 40.7 61.48 40.7C59.93 40.7 56.31 39.59 50.65 37.51C45.04 35.38 40.49 34.32 37.01 34.32L37 34.34Z" fill="white"/>
</svg>
