<svg width="138" height="35" viewBox="0 0 138 35" fill="none" xmlns="http://www.w3.org/2000/svg">
<path fill-rule="evenodd" clip-rule="evenodd" d="M36.7768 6.40348C35.5111 6.99097 34.2923 8.63588 34.2923 9.75671C34.2923 10.624 34.3166 10.644 35.1679 10.4836C36.7588 10.1838 38.3786 8.23191 38.3786 6.61445C38.3786 5.85834 38.046 5.81445 36.7768 6.40348ZM28.8369 11.4186C28.0016 11.8164 27.3691 12.3895 26.8041 13.2598C26.0369 14.4412 25.9849 14.6838 26.0026 16.9814C26.0173 18.874 26.1593 19.7697 26.6202 20.8774C27.3304 22.5842 28.9532 24.831 30.005 25.5643C30.7021 26.0501 30.8525 26.0632 32.0481 25.7414C34.2299 25.1544 35.1104 25.1308 36.6321 25.6182C38.0051 26.0578 38.1479 26.0601 39.0441 25.6577C40.0227 25.218 41.546 23.3198 42.3042 21.5953C42.7052 20.6834 42.6997 20.6644 41.8901 20.1005C41.4392 19.7864 40.8328 19.1627 40.5427 18.7143C39.5121 17.122 40.0649 14.1486 41.5632 13.2236L42.2148 12.8215L41.5907 12.1832C40.2602 10.8226 38.292 10.5169 35.7405 11.2748C34.3691 11.6819 34.2019 11.6819 32.9923 11.2736C31.2723 10.6927 30.2886 10.7269 28.8369 11.4186ZM84.2284 11.1121C82.0583 11.7345 80.5608 14.1787 81.1312 16.1667C81.7107 18.1859 82.8472 18.9453 86.3862 19.6776C87.9962 20.0107 88.6208 20.2684 89.0423 20.7732C89.7601 21.6328 89.7372 22.0219 88.9246 22.7872C88.3822 23.2985 87.9823 23.4173 86.806 23.4173C85.1987 23.4173 84.2567 22.9571 83.8622 21.9798C83.6451 21.4421 83.4394 21.3641 82.2362 21.3641C80.5559 21.3641 80.3638 21.6774 81.0925 23.2297C81.9365 25.0276 83.8462 25.9793 86.6153 25.9824C90.2733 25.9867 92.6529 24.1552 92.6529 21.3358C92.6529 18.8927 91.3995 17.8168 87.4936 16.9064C85.6787 16.4835 85.0282 16.2096 84.6288 15.6996C84.19 15.1398 84.1616 14.9373 84.4411 14.3596C85.184 12.8235 88.3313 12.8795 89.1902 14.4441C89.5757 15.1465 89.7209 15.2043 91.1039 15.2043C92.5984 15.2043 92.6001 15.2032 92.4208 14.4985C92.0901 13.1995 91.4938 12.3844 90.3548 11.6742C89.4027 11.0806 88.8995 10.961 87.1615 10.916C86.0269 10.8865 84.707 10.9748 84.2284 11.1121ZM106.072 11.3062C104.735 11.8949 103.397 13.2881 102.903 14.6047C102.335 16.1172 102.411 20.9372 103.026 22.4384C104.293 25.5332 108.361 26.8958 111.796 25.3761C112.545 25.0445 113.367 24.5507 113.624 24.2784C114.258 23.606 114.928 22.0388 114.928 21.2311C114.928 20.5874 114.884 20.5707 113.378 20.6454C111.878 20.7198 111.82 20.7499 111.597 21.5663C111.343 22.4928 110.044 23.4148 108.99 23.4163C107.99 23.4178 106.803 22.7071 106.306 21.8088C105.73 20.7689 105.503 17.4867 105.909 16.072C106.076 15.4904 106.463 14.7151 106.769 14.3491C108.172 12.6677 111.659 13.5927 111.659 15.6465C111.659 16.1911 111.773 16.2309 113.33 16.2309H115L114.848 15.1617C114.65 13.7708 113.438 12.179 112.068 11.5092C110.536 10.76 107.543 10.6586 106.072 11.3062ZM47.3684 18.4002V25.7272H48.7305H50.0926V21.0923C50.0926 18.5431 50.1904 16.5143 50.3097 16.5838C50.4293 16.6534 51.248 18.2826 52.1287 20.2047L53.7302 23.6991L54.8357 23.6224L55.9412 23.5456L57.5801 20.0076L59.2187 16.4693L59.293 21.0984L59.3671 25.7272H60.8594H62.3515V18.4002V11.0734L60.6766 11.1496L59.0015 11.2261L56.9513 15.6514C55.8238 18.0853 54.8534 20.032 54.7954 19.9771C54.7371 19.9224 53.7872 17.931 52.6844 15.5518L50.6791 11.2261L49.0239 11.1496L47.3684 11.0734V18.4002ZM65.3979 16.6801C65.5173 22.7351 65.5984 23.0944 67.1665 24.4981C69.2301 26.3455 73.531 26.4785 75.934 24.7694C77.6661 23.5374 77.8666 22.6871 77.8734 16.5517L77.8794 11.0977H76.2448H74.6103V16.3395V21.5814L73.9129 22.3622C72.9897 23.396 71.6987 23.6239 70.3315 22.9946C68.8301 22.3037 68.6506 21.5548 68.6324 15.9101L68.6171 11.0977H66.9526H65.2882L65.3979 16.6801ZM95.859 18.4125V25.7272H97.4935H99.1281V18.4125V11.0977H97.4935H95.859V18.4125Z" fill="white"/>
</svg>
