<svg width="394" height="101" viewBox="0 0 394 101" fill="none" xmlns="http://www.w3.org/2000/svg">
<path fill-rule="evenodd" clip-rule="evenodd" d="M42.68 86.75C42.93 87.97 43.06 88.58 42.68 89.01C42.3 89.44 41.66 89.38 40.39 89.27C33.27 88.64 29.28 87.33 26.17 86.04C20.99 83.89 16.87 79.78 14.72 74.59C13.43 71.47 12.12 67.49 11.49 60.37C11.38 59.1 11.32 58.46 11.75 58.08C12.18 57.7 12.79 57.82 14.01 58.08C28.39 61.06 39.71 72.38 42.69 86.76L42.68 86.75ZM56.45 89.53C60.59 89.34 63.85 88.95 66.5 88.44C67.37 88.27 67.81 88.19 68.08 87.85C68.34 87.5 68.31 87.06 68.24 86.16C66.09 57.52 43.23 34.66 14.59 32.51C13.7 32.44 13.25 32.41 12.9 32.67C12.55 32.93 12.47 33.37 12.31 34.24C11.81 36.9 11.41 40.15 11.22 44.3C11.17 45.29 11.15 45.78 11.43 46.12C11.71 46.46 12.23 46.53 13.25 46.68C34.37 49.67 51.07 66.37 54.06 87.49C54.21 88.52 54.28 89.03 54.62 89.31C54.96 89.59 55.45 89.57 56.44 89.52L56.45 89.53ZM82.12 80.77C83.76 78.97 85.1 76.89 86.05 74.59C87.85 70.25 89.68 64.23 89.68 50.37C89.68 36.51 87.85 30.49 86.05 26.15C83.9 20.97 79.79 16.85 74.6 14.7C70.26 12.9 64.23 11.07 50.38 11.07C36.53 11.07 30.5 12.9 26.16 14.7C23.87 15.65 21.78 16.99 19.98 18.63C18.75 19.76 18.13 20.32 18.34 21.01C18.54 21.7 19.46 21.84 21.28 22.14C50.67 26.88 73.88 50.09 78.61 79.47C78.9 81.29 79.05 82.2 79.74 82.41C80.43 82.61 80.99 82 82.12 80.77ZM0 50.38C0 65.41 2.02 72.92 4.47 78.84C7.74 86.74 14.02 93.02 21.92 96.29C27.85 98.74 35.36 100.76 50.38 100.76C65.4 100.76 72.92 98.74 78.84 96.29C86.74 93.02 93.02 86.74 96.29 78.84C98.75 72.91 100.76 65.4 100.76 50.38C100.76 35.36 98.74 27.84 96.29 21.92C93.02 14.02 86.74 7.74 78.84 4.47C72.91 2.02 65.4 0 50.38 0C35.36 0 27.84 2.02 21.92 4.47C14.02 7.74 7.74 14.02 4.47 21.92C2.02 27.85 0 35.36 0 50.38Z" fill="white"/>
<path fill-rule="evenodd" clip-rule="evenodd" d="M136.54 22.9799C138.42 21.5999 141.22 20.2799 144.93 19.0199C148.64 17.7599 153.13 17.1399 158.41 17.1399C162.12 17.1399 165.48 17.4899 168.49 18.1799C171.51 18.8099 174.08 19.8099 176.22 21.1999C178.42 22.5199 180.08 24.2199 181.22 26.2899C182.41 28.3599 183.01 30.8499 183.01 33.7399C183.01 41.3399 179.11 46.5299 171.32 49.2899C181.37 50.7999 186.4 55.9499 186.4 64.7499C186.4 67.5799 185.83 70.2499 184.7 72.7599C183.57 75.2099 181.87 77.3499 179.61 79.1699C177.35 80.9299 174.52 82.3399 171.13 83.4099C167.8 84.4799 163.94 85.0099 159.54 85.0099C156.52 85.0099 153.7 84.7599 151.06 84.2599C148.48 83.8199 146.13 83.2199 143.99 82.4699C141.92 81.6499 140.09 80.7699 138.52 79.8299C137.01 78.8299 135.82 77.8199 134.94 76.8099V62.2999C135.95 63.9999 137.23 65.5699 138.8 67.0099C140.37 68.4599 142.19 69.7099 144.27 70.7799C146.34 71.8499 148.67 72.6999 151.24 73.3299C153.88 73.8999 156.71 74.1799 159.72 74.1799C161.73 74.1799 163.62 73.9599 165.38 73.5199C167.14 73.0799 168.65 72.4499 169.9 71.6399C171.22 70.7599 172.26 69.6899 173.01 68.4399C173.76 67.1799 174.14 65.7099 174.14 64.0099C174.14 61.0599 172.98 58.8899 170.65 57.5099C168.39 56.1299 164.68 55.4399 159.53 55.4399H149.54V45.7299H159.43C161.57 45.7299 163.36 45.5099 164.8 45.0699C166.24 44.5699 167.41 43.9099 168.29 43.0899C169.17 42.2699 169.8 41.3299 170.17 40.2599C170.61 39.1899 170.83 38.0299 170.83 36.7699C170.83 35.2599 170.52 33.9699 169.89 32.9099C169.26 31.7799 168.38 30.8699 167.25 30.1799C166.12 29.4899 164.8 28.9899 163.29 28.6699C161.78 28.2899 160.15 28.0699 158.39 28.0099C155.88 27.9499 153.49 28.2299 151.23 28.8599C149.03 29.4899 146.99 30.3699 145.1 31.4999C143.28 32.5699 141.61 33.7899 140.1 35.1799C138.66 36.5599 137.46 37.9799 136.52 39.4199V23.0199L136.54 22.9799Z" fill="white"/>
<path fill-rule="evenodd" clip-rule="evenodd" d="M199.91 84.0501V18.0801H228.56C243.39 18.0801 250.8 23.5501 250.8 34.4801C250.8 38.2501 250.01 41.3901 248.44 43.9101C246.87 46.4201 244.39 48.3401 240.99 49.6601C245.07 50.3501 248.06 51.9801 249.94 54.5601C251.82 57.0701 252.77 60.5001 252.77 64.8301C252.77 68.2201 252.17 71.1401 250.98 73.5901C249.79 76.0401 248.06 78.0501 245.8 79.6201C243.6 81.1301 240.9 82.2601 237.69 83.0101C234.55 83.7001 230.97 84.0501 226.95 84.0501H199.9H199.91ZM227.71 73.2101C232.23 73.2101 235.56 72.4901 237.7 71.0401C239.84 69.5301 240.9 67.1801 240.9 63.9701C240.9 60.7601 239.77 58.5001 237.51 57.1801C235.25 55.8601 232.04 55.2001 227.9 55.2001H211.69V73.2001H227.71V73.2101ZM226.86 45.9701C230.63 45.9701 233.58 45.1801 235.72 43.6101C237.92 42.0401 239.02 39.8401 239.02 37.0101C239.02 34.3701 238.08 32.3601 236.19 30.9801C234.37 29.6001 231.35 28.9101 227.14 28.9101H211.68V45.9701H226.85H226.86Z" fill="white"/>
<path fill-rule="evenodd" clip-rule="evenodd" d="M280.81 73.6801C282.07 73.6801 283.2 73.4 284.2 72.83C285.2 72.26 286.08 71.2301 286.84 69.7201L258 18.0701H271.67L292.88 56.33L310.22 18.0701H322.57L298.35 70.2801C297.03 73.1701 295.71 75.5601 294.39 77.4401C293.07 79.2601 291.72 80.7401 290.34 81.8701C288.96 82.9401 287.51 83.6901 286 84.1301C284.56 84.5701 282.98 84.7901 281.29 84.7901C279.78 84.7901 278.34 84.6301 276.95 84.3201C275.63 84.0101 274.53 83.6601 273.65 83.2801V71.0301C274.53 71.8501 275.6 72.5101 276.85 73.0101C278.11 73.4501 279.43 73.67 280.81 73.67V73.6801Z" fill="white"/>
<path fill-rule="evenodd" clip-rule="evenodd" d="M344.14 84.0501H332.35V18.0801H344.14V45.7901H354.03L375.23 18.0801H389.56L364.4 49.4601L393.61 84.0501H378.53L354.6 55.4901H344.14V84.0501Z" fill="white"/>
</svg>
