<svg width="356" height="107" viewBox="0 0 356 107" fill="none" xmlns="http://www.w3.org/2000/svg">
<path fill-rule="evenodd" clip-rule="evenodd" d="M47.6781 0.311642C61.3981 -1.20836 75.6281 2.88164 86.4281 11.4916C96.3081 19.2716 103.308 30.6316 105.688 42.9916C108.398 56.5416 105.628 71.1316 97.9581 82.6516C91.3081 92.8516 81.0381 100.622 69.4181 104.262C56.2481 108.402 41.4681 107.262 29.1781 100.942C17.9781 95.2916 8.92809 85.5416 4.10809 73.9616C0.428093 65.2016 -0.791907 55.4416 0.498093 46.0216C1.87809 35.7416 6.38809 25.9216 13.2481 18.1516C21.9481 8.17164 34.4981 1.64164 47.6781 0.311642ZM36.0481 28.7216C30.6381 29.2016 25.2481 30.1016 20.0481 31.6816C17.8381 32.3416 16.2481 34.7016 16.6181 37.0116C16.8881 39.8516 20.0281 42.0016 22.7581 41.1316C26.5581 40.0116 30.4481 39.2616 34.3781 38.8116C43.5881 37.7516 52.9381 38.0216 62.0881 39.5216C70.0581 40.8716 77.9881 43.1916 84.9881 47.3116C87.1681 48.6716 90.2781 47.8216 91.5781 45.6416C93.0781 43.3916 92.2281 40.0516 89.8481 38.7616C82.1281 34.2116 73.4381 31.5516 64.6581 29.9716C55.2281 28.3016 45.5781 27.9016 36.0381 28.7216H36.0481ZM36.4181 47.0516C32.3081 47.4616 28.2281 48.2216 24.2381 49.3416C22.8081 49.6716 21.2781 50.3116 20.6381 51.7416C19.4381 53.7916 20.5981 56.6316 22.7881 57.4216C24.4081 58.1216 26.0981 57.2816 27.6881 56.9016C36.9381 54.5616 46.6681 54.3516 56.0681 55.8216C63.4381 57.0116 70.7181 59.2316 77.2381 62.9316C78.4281 63.6116 79.6581 64.5316 81.1081 64.3216C83.5781 64.1916 85.4681 61.4716 84.6881 59.1016C84.0581 56.8916 81.6681 56.1116 79.8981 55.0416C66.6481 48.0916 51.2481 45.6216 36.4181 47.0516ZM42.6681 64.0716C36.7181 64.2916 30.7981 65.1116 24.9981 66.4716C23.2981 66.7816 22.0281 68.6316 22.4581 70.3316C22.8081 72.1016 24.7681 73.3516 26.5181 72.8116C34.3581 71.0616 42.4381 70.1316 50.4681 70.8016C58.4081 71.4416 66.2881 73.7216 73.1081 77.9016C74.4681 78.8616 76.5281 78.5716 77.5081 77.2016C78.7281 75.7816 78.2881 73.3916 76.6881 72.4616C66.5881 66.1716 54.4681 63.6516 42.6681 64.0716ZM275.278 24.9116C278.748 23.4216 283.098 26.0516 283.358 29.8216C283.838 33.1216 281.048 36.3516 277.738 36.4516C274.528 36.6916 271.468 33.9216 271.488 30.6816C271.318 28.1916 272.958 25.7816 275.278 24.9116ZM292.918 30.4816C294.888 27.9216 298.188 26.8216 301.318 26.7416C304.028 26.6816 306.828 26.8716 309.368 27.8916C309.518 30.4016 309.458 32.9416 309.398 35.4616C309.348 36.2216 308.508 35.8116 308.068 35.7416C305.948 35.1616 303.468 34.5216 301.438 35.6916C299.768 36.8616 299.848 39.1316 299.898 40.9516C304.718 40.9916 309.548 40.8816 314.368 41.0116C317.618 49.4316 320.818 57.8816 324.078 66.2916C327.088 57.8416 329.898 49.3216 333.038 40.9216C336.208 40.9816 339.368 40.9216 342.538 40.9516C342.708 42.0916 342.078 43.1116 341.718 44.1516C337.228 55.7416 332.748 67.3416 328.248 78.9316C327.218 81.5516 325.958 84.1916 323.968 86.2316C322.378 87.8716 320.188 88.8616 317.938 89.1216C314.188 89.5716 310.238 88.9016 306.988 86.9416C306.288 86.5116 307.018 85.6916 307.178 85.1516C308.138 83.3516 308.678 81.2816 309.898 79.6416C311.728 80.1216 313.478 81.2816 315.488 80.9716C317.478 80.9316 318.628 79.0916 319.358 77.4816C315.418 68.0916 311.508 58.6816 307.588 49.2816C305.048 49.2616 302.518 49.2816 299.988 49.2716C299.988 55.7816 299.988 62.3016 299.988 68.8116C299.918 71.9216 300.138 75.0416 299.868 78.1416C297.108 78.1716 294.348 78.1516 291.588 78.1716C291.108 78.2316 290.358 78.1116 290.468 77.4616C290.448 68.0716 290.468 58.6816 290.468 49.2816C288.938 49.2416 287.388 49.4216 285.878 49.1216C285.888 46.4316 285.878 43.7416 285.878 41.0516C287.378 40.7016 288.928 40.9116 290.458 40.8616C290.348 37.3016 290.618 33.4016 292.898 30.4916L292.918 30.4816ZM130.608 31.5516C134.048 29.1916 138.318 28.3616 142.438 28.5116C148.478 28.6016 154.488 30.7216 159.158 34.5716C159.868 35.0316 159.118 35.7616 158.848 36.2516C157.348 38.2416 156.058 40.3916 154.428 42.2716C151.318 40.1316 147.998 38.0916 144.208 37.4716C141.378 36.9716 138.088 37.0416 135.788 39.0016C133.498 40.8416 133.818 44.9616 136.498 46.2916C140.958 48.7816 146.218 49.0516 150.898 50.9816C154.738 52.4316 158.668 54.8916 160.098 58.9616C161.468 63.0116 161.108 67.7116 158.938 71.4316C156.748 75.1416 152.738 77.4416 148.598 78.2916C139.548 80.1116 129.748 77.3016 122.948 71.0816C122.378 70.7216 122.838 70.1116 123.138 69.7416C124.698 67.9116 126.218 66.0616 127.778 64.2316C128.168 63.6716 128.878 64.0016 129.248 64.4016C132.538 67.2516 136.528 69.4916 140.918 69.9516C143.728 70.2816 146.848 70.2216 149.258 68.5316C151.688 66.8916 152.008 62.7016 149.458 61.0316C146.138 58.8516 142.088 58.3816 138.348 57.3016C134.568 56.2216 130.638 54.8816 127.798 52.0416C124.918 49.1116 124.188 44.6816 124.768 40.7516C125.278 37.0216 127.498 33.6216 130.618 31.5416L130.608 31.5516ZM249.828 31.1416C252.908 30.9216 256.028 31.0516 259.128 31.0816C259.418 34.3316 259.178 37.5916 259.258 40.8516C262.458 40.9716 265.698 40.6116 268.878 41.0416C268.888 43.7316 268.878 46.4316 268.878 49.1216C265.688 49.4416 262.458 49.1716 259.258 49.2616C259.258 55.0316 259.258 60.8016 259.258 66.5716C259.208 67.8416 259.768 69.2916 261.038 69.7716C263.288 70.5616 265.728 69.8616 267.838 68.9416C268.418 68.6316 268.888 69.3416 268.788 69.8716C268.768 72.0916 268.908 74.3416 268.708 76.5616C267.268 77.7416 265.358 78.1916 263.558 78.5416C260.208 78.9816 256.498 78.8716 253.598 76.9216C250.848 75.0616 249.738 71.6016 249.718 68.4116C249.718 62.0216 249.718 55.6316 249.718 49.2516C248.258 49.2216 246.798 49.3416 245.348 49.1816L245.178 48.9516C245.058 46.3116 245.158 43.6516 245.138 41.0016C246.648 40.7216 248.188 40.8516 249.708 40.8316C249.778 37.6016 249.558 34.3416 249.808 31.1216L249.828 31.1416ZM182.068 40.4116C187.978 39.2816 194.398 41.6216 198.168 46.3116C201.258 50.0616 202.568 55.0316 202.438 59.8316C202.478 64.8316 200.848 69.9716 197.358 73.6416C193.208 78.0816 186.548 79.9716 180.698 78.3316C177.908 77.6016 175.488 75.9016 173.538 73.8216C173.488 78.8716 173.658 83.9316 173.458 88.9816C171.088 89.1916 168.708 89.0316 166.328 89.1016C165.618 89.0516 164.838 89.2116 164.178 88.8916C163.868 88.3616 164.048 87.7116 163.998 87.1316C164.028 71.7616 163.988 56.3916 164.018 41.0216C165.658 40.7216 167.318 40.8916 168.978 40.8616C170.488 40.8916 172.018 40.7216 173.518 41.0416C173.548 42.5516 173.558 44.0716 173.518 45.5916C175.698 43.0116 178.688 41.0116 182.058 40.4216L182.068 40.4116ZM181.088 48.8316C179.638 49.1616 178.258 49.8316 177.128 50.8016C171.758 55.2716 172.078 64.9116 177.908 68.8516C181.718 71.5416 187.528 70.7616 190.378 67.0316C193.638 62.7616 193.628 56.2116 190.288 51.9816C188.148 49.2716 184.428 48.0316 181.088 48.8316ZM222.238 40.2916C217.998 40.7816 213.908 42.6516 210.838 45.6416C206.908 49.3616 204.748 54.8116 204.948 60.2016C205.028 66.2216 208.168 72.0916 213.158 75.4616C220.818 80.8416 232.268 79.9716 238.868 73.2716C243.128 69.1816 245.178 63.0216 244.438 57.1816C243.848 51.7016 240.728 46.5616 236.128 43.5316C232.098 40.8016 227.048 39.6916 222.238 40.2916ZM222.618 48.8616C225.788 48.2716 229.268 49.1116 231.608 51.3916C236.158 55.6116 236.198 63.6816 231.648 67.9216C227.988 71.3416 221.718 71.3916 218.058 67.9516C214.068 64.4116 213.418 58.0116 216.058 53.4916C217.458 51.1016 219.898 49.3816 222.618 48.8716V48.8616ZM272.618 41.1116C274.158 40.6116 275.798 40.9416 277.388 40.8616C278.978 40.9516 280.638 40.6016 282.178 41.1216C282.148 51.9716 282.178 62.8116 282.158 73.6516C282.098 75.1516 282.318 76.6816 281.978 78.1616C279.068 78.1116 276.168 78.1916 273.268 78.1316C272.608 78.2516 272.608 77.4616 272.618 77.0416C272.618 65.0616 272.638 53.0916 272.618 41.1116ZM348.228 40.9916C351.248 40.1516 354.648 42.1316 355.338 45.2016C356.248 48.3816 353.958 52.0116 350.658 52.4616C347.618 53.1016 344.408 50.9016 343.888 47.8516C343.218 44.8916 345.248 41.6216 348.228 40.9916ZM348.208 41.7016C345.648 42.4116 343.978 45.2616 344.618 47.8416C345.158 50.5816 348.188 52.4916 350.888 51.7216C353.698 51.1116 355.498 47.8516 354.568 45.1316C353.838 42.5116 350.808 40.8616 348.208 41.7016ZM347.228 43.4716C347.228 45.5316 347.228 47.5816 347.228 49.6416C347.658 49.6416 348.088 49.6416 348.528 49.6416C348.528 48.9016 348.528 48.1716 348.528 47.4416C350.008 47.1316 350.418 48.7516 351.168 49.6516C351.678 49.6516 352.188 49.6516 352.708 49.6516C352.178 48.8916 351.628 48.1316 351.088 47.3916C352.678 46.8016 352.918 44.2516 351.238 43.6416C349.928 43.3216 348.558 43.5416 347.228 43.4916V43.4716ZM348.538 44.5816C348.528 45.1816 348.528 45.7816 348.538 46.3816C349.478 46.3316 351.178 46.7216 351.158 45.2816C350.748 44.2116 349.408 44.7016 348.548 44.5816H348.538Z" fill="#1ED760"/>
</svg>
