<svg width="382" height="75" viewBox="0 0 382 75" fill="none" xmlns="http://www.w3.org/2000/svg">
<path fill-rule="evenodd" clip-rule="evenodd" d="M122.36 56.25L136.13 18.48H129.32L118.29 49.61H117.21L106.55 18.48H99.6396L112.98 56.25H122.36Z" fill="white"/>
<path fill-rule="evenodd" clip-rule="evenodd" d="M153.97 36.7L169.99 18.48H162.06L148.67 33.86H147.12V18.48H140.69V56.25H147.12V40.07H148.72L162.87 56.25H171.33L153.97 36.7Z" fill="white"/>
<path fill-rule="evenodd" clip-rule="evenodd" d="M192.89 56.25V27.05H193.75L204.3 56.25H210.3L221.07 27.05H221.92V56.25H228.19V18.48H218.34L207.84 47.04H206.98L196.69 18.48H186.62V56.25H192.89Z" fill="white"/>
<path fill-rule="evenodd" clip-rule="evenodd" d="M248.38 48.4801H247.52L239.32 28.3901H232.73L245.1 57.7501L244.78 58.6101C243.98 60.8601 243.01 61.6101 240.98 61.6101H235.78L236.32 67.2401H240.55C245.69 67.2401 248.48 64.9401 250.35 59.7401L261.76 28.4001H255.49L248.37 48.4901L248.38 48.4801Z" fill="white"/>
<path fill-rule="evenodd" clip-rule="evenodd" d="M281.15 42.0499C283.99 41.2999 286.08 38.9999 286.08 35.8399C286.08 31.1799 281.63 27.8599 275.47 27.8599C269.95 27.8599 265.29 30.4299 263.58 35.7299L269.26 36.6899C270.39 34.4899 272.58 33.0999 275.26 33.0999C277.94 33.0999 279.92 34.3899 279.92 36.4799C279.92 38.3599 278.21 39.5899 274.88 39.5899H271.4V44.9499H274.88C279.06 44.9499 280.34 46.3399 280.34 48.1099C280.34 50.2499 278.41 51.5399 274.88 51.5399C271.67 51.5399 269.79 50.4699 268.56 47.9999L262.88 48.9599C264.22 53.6199 268.77 56.7799 274.93 56.7799C282 56.7799 286.5 53.1399 286.5 48.5799C286.5 45.0999 283.98 42.8999 281.14 42.0399L281.15 42.0499Z" fill="white"/>
<path fill-rule="evenodd" clip-rule="evenodd" d="M302.89 56.2501C309.53 56.2501 314.25 52.1301 314.25 46.2901C314.25 40.4501 309.59 36.3301 302.89 36.3301H298.55V28.4001H292.39V56.2601H302.89V56.2501ZM323.73 56.2501V28.3901H317.57V56.2501H323.73ZM298.55 41.6801H302.89C305.94 41.6801 308.09 43.5601 308.09 46.2901C308.09 49.0201 305.95 50.9001 302.89 50.9001H298.55V41.6901V41.6801Z" fill="white"/>
<path fill-rule="evenodd" clip-rule="evenodd" d="M356.08 56.2501L343.28 41.7901L355.01 28.3901H347.67L338.35 39.2101H336.85V28.3901H330.69V56.2501H336.85V45.1601H338.35L347.99 56.2501H356.08Z" fill="white"/>
<path fill-rule="evenodd" clip-rule="evenodd" d="M369.88 27.8601C364.47 27.8601 359.7 30.6501 358.31 35.4701L363.99 36.4301C364.85 34.7201 366.78 33.1101 369.56 33.1101C372.94 33.1101 374.92 35.5201 375.18 39.1601H369.18C360.98 39.1601 356.91 42.7501 356.91 47.8901C356.91 53.0301 360.93 56.7801 366.61 56.7801C371.16 56.7801 374.22 54.1501 375.56 51.8501L376.85 56.2401H381.4V40.6001C381.4 32.5101 377.01 27.8501 369.88 27.8501V27.8601ZM368.06 51.5901C365.06 51.5901 363.13 50.0401 363.13 47.6301C363.13 45.4901 364.68 43.9901 369.4 43.9901H375.24C375.24 48.5401 372.35 51.6001 368.06 51.6001V51.5901Z" fill="white"/>
<path fill-rule="evenodd" clip-rule="evenodd" d="M5.27 5.27C0.16 10.39 0 18.52 0 34.5C14.32 34.5 23.25 28.35 31.09 22.96C37.22 18.75 42.67 15 49.5 15C59.66 15 68.53 22.18 73.23 25.99C73.89 26.53 74.47 27 74.96 27.37C74.81 15.98 74.01 9.56 69.72 5.27C64.46 0 55.97 0 39 0H36C19.03 0 10.54 0 5.27 5.27ZM33.79 75C34.51 75 35.24 75 35.99 75H38.99C39.74 75 40.48 75 41.19 75H33.78H33.79Z" fill="#0077FF"/>
<path fill-rule="evenodd" clip-rule="evenodd" d="M0 34.5C14.32 34.5 23.25 28.35 31.09 22.96C37.22 18.75 42.67 15 49.5 15C59.66 15 68.53 22.18 73.23 25.99C73.89 26.53 74.47 27 74.96 27.37C74.99 29.97 74.99 32.84 74.99 36V39C74.99 55.97 74.99 64.46 69.72 69.73C64.68 74.77 56.71 74.99 41.2 75H33.79C18.28 75 10.31 74.77 5.27 69.73C0 64.46 0 55.97 0 39V36C0 35.49 0 34.99 0 34.5Z" fill="#F45FFF"/>
<path fill-rule="evenodd" clip-rule="evenodd" d="M58.1299 38.2301C58.1299 36.3801 59.6499 34.8701 61.4999 34.8701C63.3499 34.8701 64.8699 36.3701 64.8699 38.2301V51.7701C64.8699 53.6201 63.3499 55.1301 61.4999 55.1301C59.6499 55.1301 58.1299 53.6301 58.1299 51.7701V38.2301Z" fill="white"/>
<path fill-rule="evenodd" clip-rule="evenodd" d="M46.1299 29.61C46.1299 27.76 47.6499 26.25 49.4999 26.25C51.3499 26.25 52.8699 27.75 52.8699 29.61V60.4C52.8699 62.25 51.3499 63.76 49.4999 63.76C47.6499 63.76 46.1299 62.26 46.1299 60.4V29.61Z" fill="white"/>
<path fill-rule="evenodd" clip-rule="evenodd" d="M34.1299 38.2301C34.1299 36.3801 35.6499 34.8701 37.5099 34.8701C39.3699 34.8701 40.8799 36.3701 40.8799 38.2301V51.7701C40.8799 53.6201 39.3599 55.1301 37.5099 55.1301C35.6599 55.1301 34.1299 53.6301 34.1299 51.7701V38.2301Z" fill="white"/>
<path fill-rule="evenodd" clip-rule="evenodd" d="M22.1201 43.11C22.1201 41.26 23.6401 39.75 25.4901 39.75C27.3401 39.75 28.8601 41.25 28.8601 43.11V46.9C28.8601 48.75 27.3401 50.26 25.4901 50.26C23.6401 50.26 22.1201 48.76 22.1201 46.9V43.11Z" fill="white"/>
<path fill-rule="evenodd" clip-rule="evenodd" d="M10.1201 43.11C10.1201 41.26 11.6401 39.75 13.4901 39.75C15.3401 39.75 16.8601 41.25 16.8601 43.11V46.9C16.8601 48.75 15.3401 50.26 13.4901 50.26C11.6401 50.26 10.1201 48.76 10.1201 46.9V43.11Z" fill="white"/>
</svg>
