<svg width="291" height="50" viewBox="0 0 291 50" fill="none" xmlns="http://www.w3.org/2000/svg">
<mask id="mask0_359_227" style="mask-type:luminance" maskUnits="userSpaceOnUse" x="0" y="0" width="291" height="50">
<path d="M290.68 0H0V49.6H290.68V0Z" fill="white"/>
</mask>
<g mask="url(#mask0_359_227)">
<path fill-rule="evenodd" clip-rule="evenodd" d="M59.0499 18.91L58.8499 17.94L50.6699 16.51L55.4299 10.08L54.8699 9.48L47.8799 12.83L48.7699 3.93L48.0499 3.52L43.7899 10.72L39.0099 0H38.1899L39.3199 10.36L27.2999 0.74L26.2799 1.04L35.5299 12.67L17.2099 6.57L16.3799 7.5L32.7399 16.82L10.1699 18.69L9.91992 20.09L33.3799 22.64L13.8099 38.83L14.6399 39.95L37.9399 27.29L33.3199 49.6H34.7299L43.6599 28.61L49.0999 45.04L50.0699 44.3L47.8299 27.59L56.3099 37.21L56.8599 36.33L50.3699 24.4L59.4299 27.75L59.5199 26.74L51.3899 20.75L59.0499 18.91Z" fill="#FFBC0D"/>
<path fill-rule="evenodd" clip-rule="evenodd" d="M168.93 28.6499C173.1 27.8099 175.1 25.7599 175.1 23.6199C175.1 19.1099 168.82 16.9299 160.54 16.9299C154.85 16.9299 150.57 18.0199 147.62 19.5199V24.3899C150.21 23.0199 154.49 21.7099 158.95 21.7099C162.14 21.7099 164 22.3899 164 24.1199C164 25.8499 162.41 26.5299 158.63 26.5299H153.44V31.3499H158.58C163.45 31.3499 164.68 32.0299 164.68 33.7599C164.68 35.2199 162.82 36.3099 158.45 36.3099C152.49 36.3099 149.03 34.4899 146.94 33.4899V38.4999C148.76 39.5899 152.99 40.9099 159.68 40.9099C170.15 40.9099 175.92 38.1799 175.92 33.7199C175.92 30.8699 173.41 29.2899 168.93 28.6499Z" fill="#FFBC0D"/>
<path fill-rule="evenodd" clip-rule="evenodd" d="M140.61 17.75L132.95 31.95L124.64 17.75H112.26L127 42.17L122.55 49.24H128.87L135.1 38.95L146.94 17.75H140.61Z" fill="#FFBC0D"/>
<path fill-rule="evenodd" clip-rule="evenodd" d="M89.2097 26.8299L81.4496 9.18994H68.3896V40.2299H73.3497V17.3999L83.5497 40.2299H89.1897L99.2496 17.3899V40.2299H110.35V9.18994H96.7397L89.2097 26.8299Z" fill="#FFBC0D"/>
<path fill-rule="evenodd" clip-rule="evenodd" d="M256.24 17.75H247.91L235.9 26.67V17.75H224.84V40.23H235.9V30.85L243.77 40.23H258.01L245.14 25.83L256.24 17.75Z" fill="#FFBC0D"/>
<path fill-rule="evenodd" clip-rule="evenodd" d="M194.67 23.89H190.12V17.75H179.01V40.23H194.62C202.95 40.23 208.09 37.32 208.09 31.9C208.09 27.03 203.54 23.89 194.67 23.89ZM193.12 35.54H190.12V28.58H193.12C195.53 28.58 196.94 29.72 196.94 32.04C196.94 34.72 195.71 35.54 193.12 35.54Z" fill="#FFBC0D"/>
<path fill-rule="evenodd" clip-rule="evenodd" d="M280.04 17.7899L279.79 20.6099C277.54 18.5199 274.18 17.4199 269.89 17.4199C262.34 17.4199 256.15 21.5199 256.15 29.1199C256.15 36.7199 262.02 40.8599 269.85 40.8599C274.06 40.8599 277.5 39.7399 279.82 37.5699L280.04 40.2299H290.69V17.7999H280.04V17.7899ZM273.58 35.8499C269.8 35.8499 267.48 33.9499 267.48 29.0699C267.48 23.8899 269.89 22.4299 273.58 22.4299C276.95 22.4299 279.63 23.8499 279.63 29.0699C279.63 34.2899 277.35 35.8499 273.58 35.8499Z" fill="#FFBC0D"/>
<path d="M220.42 17.75H209.36V40.23H220.42V17.75Z" fill="#FFBC0D"/>
</g>
</svg>
