<svg width="419" height="127" viewBox="0 0 419 127" fill="none" xmlns="http://www.w3.org/2000/svg">
<path d="M64.44 126.96C100.029 126.96 128.88 98.539 128.88 63.48C128.88 28.421 100.029 0 64.44 0C28.8508 0 0 28.421 0 63.48C0 98.539 28.8508 126.96 64.44 126.96Z" fill="#FF0000"/>
<path d="M64.4403 101.57C85.7916 101.57 103.1 84.5167 103.1 63.4801C103.1 42.4436 85.7916 25.3901 64.4403 25.3901C43.0889 25.3901 25.7803 42.4436 25.7803 63.4801C25.7803 84.5167 43.0889 101.57 64.4403 101.57Z" fill="#FF0000" stroke="white" stroke-width="0.9" stroke-miterlimit="22.9256"/>
<path fill-rule="evenodd" clip-rule="evenodd" d="M51.5596 82.24L85.0296 63.49L51.5596 44.73V82.24Z" fill="white"/>
<path fill-rule="evenodd" clip-rule="evenodd" d="M348.07 114.21C348.1 89.1401 348.01 64.0601 348.12 38.9901C353.53 39.0601 358.93 39 364.33 39.03C364.3 64.09 364.35 89.1401 364.3 114.2C358.89 114.2 353.48 114.17 348.07 114.21ZM240.92 89.66C240.93 72.7801 240.89 55.91 240.93 39.03C246.58 39 252.25 39.05 257.9 39C257.91 57.81 257.91 76.6101 257.91 95.4201C257.95 97.7801 258.18 100.35 259.65 102.3C261.38 104.11 264.22 103.6 266.2 102.49C267.83 101.7 268.94 100.21 269.87 98.72C269.8 78.83 269.83 58.92 269.86 39.03C275.47 39.04 281.08 39.0501 286.71 39.0101C286.78 64.0701 286.73 89.1301 286.73 114.2C282.31 114.19 277.9 114.18 273.48 114.21C272.95 111.06 272.5 107.89 271.9 104.76C269.38 109.79 264.93 114.23 259.19 115.13C255.6 115.5 251.75 115.66 248.45 113.98C245.57 112.55 243.53 109.8 242.53 106.78C240.57 101.29 240.94 95.38 240.92 89.66ZM382.18 42.44C385.55 39.32 390.19 37.9801 394.71 37.7401C399.61 37.4501 404.75 37.65 409.24 39.84C412.97 41.63 415.69 45.18 416.82 49.12C418.59 54.81 418.38 60.8401 418.05 66.7101C413.12 67.0701 408.19 67.2801 403.27 67.7101C402.88 62.2901 403.57 56.5401 401.3 51.4501C400 48.7201 396.41 48.8 394.11 50.12C392.94 51.88 392.26 53.9101 392.01 56.0101C391.12 62.8001 391.49 69.6601 391.41 76.4901C391.48 83.4001 391.15 90.3401 392 97.2101C392.36 99.3601 392.81 101.86 394.73 103.21C397.18 104.49 400.77 103.71 401.92 101.01C403.85 96.3701 403.59 91.1901 403.59 86.2601C408.58 86.6301 413.59 86.6801 418.58 87.0801C418.65 93.0801 418.63 99.2901 416.3 104.93C414.69 108.95 411.46 112.37 407.35 113.84C402.84 115.59 397.91 115.39 393.17 115.22C388.87 114.88 384.39 113.55 381.31 110.38C378.23 107.39 376.81 103.17 375.89 99.0801C374.23 91.3001 374.46 83.3001 374.43 75.3901C374.42 68.0201 374.4 60.5401 376.26 53.3501C377.25 49.3301 379.1 45.35 382.18 42.44ZM305.17 39.9901C310.29 37.6101 316.09 37.55 321.61 37.94C326.53 38.42 331.73 40.3801 334.49 44.7301C338.11 50.2901 338.06 57.26 337.8 63.65C333.04 63.81 328.29 64.1301 323.54 64.2601C323.38 60.3201 323.54 56.2001 321.93 52.5101C321.26 50.9801 319.75 49.8701 318.08 49.7601C315.82 49.5201 313.14 49.8901 311.69 51.8201C309.75 54.9901 310.34 59.2201 312.3 62.2401C314.79 65.7201 318.55 67.9301 321.88 70.5101C326.12 73.7301 330.48 76.9201 333.91 81.0401C336.55 84.2101 338.25 88.1501 338.63 92.2701C339.11 97.3401 338.7 102.74 336.11 107.23C333.75 111.28 329.52 113.99 324.99 114.99C320.51 116.07 315.83 116.03 311.27 115.56C306.17 114.88 300.85 112.6 298.15 108C295.03 103.04 295.24 96.9001 295.82 91.3001C300.62 91.0001 305.44 91.1301 310.25 90.9601C310.06 94.5801 310.1 98.5701 312.35 101.61C314.86 105 320.58 104.9 323.04 101.5C324.62 99.16 324.41 95.9501 323.11 93.5401C321.29 90.5101 318.44 88.3401 315.78 86.1001C311.69 82.8301 307.38 79.8101 303.56 76.2101C300.25 72.9701 297.52 68.98 296.5 64.41C295.38 59.53 295.44 54.32 296.87 49.5C298.09 45.33 301.17 41.7401 305.17 39.9901ZM152.4 11.4901C160.37 11.3501 168.36 11.5001 176.34 11.4201C178.9 23.4401 181.3 35.5001 183.8 47.5401C186.94 62.2601 188.86 77.21 190.81 92.12C191.29 91.58 191.67 90.9701 191.7 90.2401C193.57 77.2201 195.27 64.1601 197.73 51.2301C200.34 37.9601 202.96 24.6801 205.71 11.4301C213.76 11.4501 221.83 11.4501 229.89 11.4301C229.81 45.6901 229.9 79.96 229.84 114.22C224.86 114.16 219.88 114.25 214.89 114.17C214.91 90.5701 214.91 66.97 214.91 43.37C214.84 39.02 215.2 34.6701 214.74 30.3301C209.57 58.3201 203.95 86.2301 198.68 114.2C193.71 114.2 188.75 114.19 183.78 114.21C179.19 91.0601 174.68 67.8901 170.13 44.7301C169.17 39.8401 168.18 34.96 167.4 30.03C167.14 43.77 167.35 57.51 167.29 71.25C167.3 85.57 167.27 99.8901 167.31 114.21C162.36 114.17 157.41 114.19 152.47 114.19C152.24 84.99 152.44 55.7801 152.38 26.5701C152.4 21.5501 152.29 16.5201 152.4 11.4901ZM352.31 9.91005C355.54 9.21005 359.24 9.07004 362.16 10.87C365.03 12.78 365.46 16.5801 365.47 19.7401C365.41 22.7401 365.41 26.27 363.03 28.47C361.59 29.96 359.38 30.24 357.42 30.37C354.63 30.5 351.53 30.3401 349.35 28.3801C347.58 26.5001 347.15 23.81 347.07 21.34C346.98 18.48 346.99 15.45 348.39 12.87C349.17 11.34 350.7 10.38 352.31 9.91005Z" fill="white"/>
</svg>
